<?xml version="1.0" standalone="no"?>
<!DOCTYPE svg PUBLIC "-//W3C//DTD SVG 20010904//EN"
 "http://www.w3.org/TR/2001/REC-SVG-20010904/DTD/svg10.dtd">
<svg version="1.0" xmlns="http://www.w3.org/2000/svg"
 width="1024.000000pt" height="1024.000000pt" viewBox="0 0 1024.000000 1024.000000"
 preserveAspectRatio="xMidYMid meet">

<g transform="translate(0.000000,1024.000000) scale(0.100000,-0.100000)"
fill="#000000" stroke="none">
<path d="M5010 9323 c-131 -13 -266 -38 -339 -63 -113 -37 -241 -92 -310 -132
-31 -18 -69 -40 -85 -48 -16 -8 -50 -35 -77 -60 -26 -25 -73 -67 -105 -94 -31
-27 -100 -101 -154 -164 -113 -133 -185 -265 -251 -462 -41 -122 -41 -122 -41
-284 -1 -160 13 -252 54 -358 14 -38 29 -35 23 5 -3 17 -7 82 -9 142 l-5 110
9 -89 c6 -50 14 -94 19 -99 6 -6 7 -23 4 -38 -3 -18 -1 -29 5 -29 6 0 18 -12
26 -27 13 -24 15 -25 16 -8 1 14 6 9 20 -19 11 -22 27 -47 35 -56 8 -9 15 -21
15 -27 0 -6 23 -41 50 -78 28 -37 50 -76 50 -87 0 -11 4 -17 9 -13 5 3 13 -5
17 -17 3 -12 24 -39 45 -59 51 -49 139 -165 132 -173 -4 -3 -17 1 -31 10 -13
9 -33 13 -44 11 -22 -6 -88 56 -88 83 0 9 -3 20 -7 24 -14 13 -12 38 3 32 22
-8 17 12 -6 24 -15 8 -20 8 -20 -2 0 -6 -9 -2 -20 10 -19 20 -32 26 -51 24 -4
-1 -31 43 -60 96 -52 94 -88 186 -89 227 -1 19 -1 19 -12 1 -19 -33 27 -152
124 -320 64 -110 228 -270 285 -279 10 -1 45 -18 78 -37 33 -19 92 -47 130
-62 39 -15 60 -27 48 -27 -13 -1 -46 8 -75 19 -29 11 -66 20 -83 20 -29 -1
-29 -1 -11 -15 25 -19 9 -19 -24 0 -14 8 -31 14 -37 15 -21 0 -15 -16 10 -28
20 -10 19 -11 -8 -5 -42 8 -86 36 -191 120 -100 79 -174 169 -247 298 -48 85
-84 185 -65 185 5 0 8 7 4 15 -3 8 0 15 7 15 9 0 9 2 1 8 -7 4 -23 57 -37 117
-14 61 -26 99 -27 85 -3 -46 -28 114 -29 185 0 64 10 169 24 242 2 15 -4 1
-15 -32 -11 -33 -20 -73 -20 -90 0 -16 -4 -36 -9 -44 -7 -11 -11 -4 -17 25 -6
32 -8 35 -15 19 -4 -11 -8 -38 -8 -59 -1 -37 -2 -38 -15 -21 -13 19 -15 17
-21 -18 -8 -43 -8 -45 35 -235 17 -79 29 -146 27 -149 -15 -14 -126 185 -128
229 0 14 -3 17 -6 9 -6 -16 14 -106 37 -167 8 -22 52 -112 97 -200 149 -287
345 -494 583 -614 73 -37 211 -80 275 -87 187 -18 422 66 578 206 35 31 40 33
35 14 -3 -12 -1 -24 6 -26 7 -3 3 -15 -11 -35 -13 -17 -23 -39 -23 -49 0 -15
-2 -15 -15 3 -25 33 -16 1 15 -51 29 -49 41 -56 19 -12 -9 19 -7 18 10 -3 11
-14 21 -30 21 -35 0 -6 10 -26 23 -45 41 -61 149 -402 133 -418 -4 -3 -6 1 -6
10 0 8 -25 54 -55 103 -30 48 -67 110 -81 139 -14 28 -30 55 -35 60 -14 15
-11 -17 4 -39 8 -11 37 -74 65 -141 49 -115 81 -217 115 -364 9 -36 18 -73 22
-82 4 -10 3 -18 -3 -18 -10 0 -122 173 -122 189 0 5 -16 30 -35 55 -19 26 -35
52 -35 59 -1 6 -7 23 -15 37 -20 36 -19 7 5 -75 11 -38 20 -83 20 -99 l0 -29
-29 40 c-16 22 -38 58 -49 79 -11 22 -71 89 -133 149 -113 109 -216 179 -286
191 -55 10 -165 54 -248 99 l-85 47 0 -29 c0 -16 7 -39 16 -51 8 -12 13 -22
10 -22 -14 0 -92 52 -176 119 -181 143 -356 334 -416 454 -13 26 -27 47 -29
47 -5 0 3 -22 48 -120 31 -69 63 -178 73 -245 3 -27 15 -77 25 -110 10 -33 23
-89 29 -125 6 -36 20 -84 30 -107 36 -82 4 -41 -58 75 -127 235 -178 386 -216
642 -14 89 -26 134 -58 222 -10 27 -18 34 -28 28 -8 -4 -35 -11 -60 -15 -122
-19 -376 -100 -565 -179 -346 -147 -644 -343 -886 -585 -118 -118 -269 -293
-269 -312 0 -3 19 -12 43 -19 137 -41 233 -133 320 -306 36 -72 97 -258 97
-298 1 -48 16 -47 50 5 104 161 388 468 565 610 99 80 249 183 397 272 138 83
387 211 395 203 11 -10 -20 -107 -48 -151 -32 -50 -35 -60 -16 -49 8 5 8 2 -2
-9 -16 -20 -25 -23 -15 -4 4 6 -2 3 -14 -7 -27 -23 -29 -40 -3 -27 33 18 56
-20 57 -98 3 -106 7 -140 18 -138 6 1 10 -4 8 -10 -1 -7 5 -13 13 -13 9 0 12
-6 8 -16 -4 -10 1 -17 16 -21 11 -3 18 -9 15 -14 -3 -5 2 -6 10 -3 9 3 17 -3
21 -18 13 -41 23 -48 55 -36 16 5 35 8 41 6 6 -2 -29 -19 -77 -37 -488 -183
-1048 -702 -1310 -1213 -113 -222 -159 -432 -151 -688 2 -85 8 -164 12 -175 6
-19 6 -19 -5 -1 -15 23 -33 179 -31 271 2 71 -6 88 -11 22 -2 -31 -6 -37 -24
-37 -30 0 -42 47 -45 180 -2 91 -1 97 16 97 9 0 14 -6 11 -14 -3 -7 -1 -13 4
-13 11 0 11 -1 15 50 3 46 4 47 15 30 8 -12 11 -11 16 8 5 18 9 20 15 10 7
-10 13 -8 31 11 13 13 17 21 11 17 -8 -4 -13 -1 -13 7 0 8 9 17 19 20 12 3 24
20 32 46 14 48 11 57 -92 221 -36 58 -78 129 -93 158 -14 28 -31 52 -37 52 -7
0 -9 11 -5 30 3 17 4 30 2 30 -6 0 -103 -240 -112 -274 -4 -19 -3 -27 3 -23 9
6 57 -176 133 -508 50 -217 144 -500 163 -488 6 4 8 0 4 -10 -8 -21 68 -187
95 -207 4 -3 -18 -5 -48 -3 -49 1 -55 0 -49 -15 4 -9 18 -46 31 -81 74 -198
178 -309 324 -347 53 -13 85 -15 175 -8 154 11 221 9 248 -9 13 -8 55 -51 93
-94 38 -43 101 -113 141 -156 40 -43 73 -82 73 -87 0 -5 -19 -1 -42 8 -27 11
-69 45 -116 94 -81 84 -152 127 -247 152 -101 26 -191 30 -285 12 -114 -21
-194 -38 -198 -42 -4 -3 88 -119 135 -170 45 -50 115 -101 179 -131 82 -39
195 -39 346 0 129 32 206 34 267 6 47 -21 143 -89 214 -151 58 -51 29 -49 -76
6 -160 84 -294 106 -427 72 -63 -17 -289 -115 -290 -127 -1 -13 158 -114 243
-154 110 -53 158 -64 258 -65 112 0 187 17 239 54 57 40 162 87 210 93 43 6
105 -19 121 -50 9 -15 8 -18 -3 -11 -7 4 -19 16 -26 26 -16 22 -42 24 -42 3 0
-10 -10 -15 -27 -15 -14 0 -23 -3 -20 -7 8 -7 -48 -51 -77 -59 -12 -3 -30 -9
-41 -14 -11 -5 -58 -22 -105 -38 -47 -16 -94 -33 -105 -37 -18 -8 -19 -7 -6 8
7 9 20 17 27 17 8 0 14 5 14 10 0 15 -15 12 -41 -9 -13 -10 -69 -42 -124 -70
-55 -28 -107 -56 -115 -61 -86 -51 -244 -132 -280 -143 -98 -32 -113 -30 -207
24 -98 57 -134 81 -181 121 -18 16 -37 26 -42 23 -5 -3 -20 9 -35 27 l-26 33
7 -30 c11 -48 98 -227 142 -292 199 -293 725 -642 1197 -796 430 -140 770
-201 1180 -214 530 -16 961 115 1710 517 524 282 806 376 1137 381 150 2 150
5 23 64 -224 105 -504 164 -989 210 -159 15 -529 19 -451 5 35 -6 30 -8 -35
-10 l-75 -3 85 -11 c47 -6 94 -16 105 -23 18 -10 16 -12 -20 -18 -59 -10 -64
-13 -24 -14 22 -1 39 -7 42 -15 8 -21 -1 -25 -41 -19 -35 5 -36 5 -17 -10 11
-8 23 -13 26 -11 4 2 12 -3 19 -11 10 -12 9 -16 -6 -21 -11 -3 -26 -8 -34 -11
-34 -13 -49 -15 -140 -22 -57 -3 -90 -9 -82 -14 10 -7 10 -12 1 -23 -14 -17
-30 -18 -27 -2 2 7 -8 12 -22 12 -22 1 -26 -4 -30 -39 -4 -29 -11 -43 -30 -52
-31 -16 -72 -17 -88 -1 -9 9 -26 7 -73 -7 -57 -18 -64 -18 -89 -3 -17 10 -32
12 -37 7 -19 -19 -85 -47 -99 -42 -8 3 -21 18 -30 34 -16 32 -29 36 -41 16
-12 -21 -41 -28 -47 -11 -3 8 -12 14 -21 14 -8 0 -15 4 -15 9 0 13 29 41 42
41 6 0 19 6 27 14 20 18 157 73 197 79 l29 4 -31 2 c-17 0 -51 -6 -75 -14 -75
-27 -111 -29 -127 -8 -10 13 -16 14 -19 6 -8 -21 -46 -15 -77 12 l-29 25 34
-7 c30 -6 32 -4 21 9 -7 9 -23 14 -40 12 -15 -2 -7 3 18 10 72 22 8 19 -96 -4
-49 -12 -118 -27 -154 -35 -36 -8 -94 -23 -130 -34 -36 -11 -127 -38 -202 -61
-76 -22 -198 -58 -270 -80 -339 -101 -560 -145 -801 -161 -353 -23 -625 28
-907 172 -145 74 -188 106 -55 41 55 -27 120 -58 144 -70 24 -12 48 -19 53
-16 4 3 8 0 8 -5 0 -10 75 -28 93 -23 5 1 6 -2 3 -6 -6 -10 96 -42 130 -42 16
0 17 2 4 10 -8 5 -10 10 -5 11 6 1 19 3 30 4 11 2 29 6 40 10 14 5 16 4 7 -3
-9 -6 2 -9 35 -9 26 0 98 -1 158 -3 163 -4 404 17 518 45 54 14 109 25 122 25
31 0 177 35 202 48 11 6 25 18 33 26 10 13 10 16 -3 16 -9 0 -19 -5 -22 -10
-9 -15 -25 -12 -25 5 0 8 -4 15 -10 15 -5 0 -10 -9 -10 -20 0 -11 -5 -20 -11
-20 -5 0 -8 4 -4 9 3 5 1 12 -4 15 -5 3 -11 -4 -14 -15 -3 -12 -9 -19 -14 -16
-4 3 -31 1 -60 -3 -29 -5 -85 -10 -125 -11 -42 -2 -77 -8 -83 -15 -14 -18 -94
-22 -104 -5 -8 13 -68 7 -101 -9 -8 -5 -33 -11 -55 -14 -22 -3 -53 -9 -68 -12
-51 -11 -81 -14 -195 -20 -100 -5 -124 -2 -220 21 -268 66 -412 115 -412 141
0 8 -3 14 -7 14 -5 1 -30 21 -58 47 -27 25 -41 41 -30 35 40 -20 242 -81 315
-96 94 -18 312 -36 444 -36 118 0 353 22 481 45 178 31 694 139 835 175 92 24
374 75 495 91 50 6 99 16 110 20 26 12 -7 8 -260 -29 -192 -28 -255 -33 -255
-22 0 3 -10 7 -22 8 -34 2 -78 -20 -78 -40 0 -10 -4 -18 -8 -18 -10 0 -102
172 -102 189 0 12 86 163 121 213 11 14 19 33 19 41 0 14 31 16 238 17 l238 1
71 -113 c99 -157 100 -160 78 -203 -11 -19 -16 -37 -13 -40 3 -3 66 1 139 9
372 43 797 47 1100 12 40 -5 41 -5 9 3 -19 5 -53 12 -74 16 -24 4 -35 10 -27
14 19 12 4 36 -31 49 -43 16 -27 30 54 48 60 12 65 12 105 -9 51 -26 123 -82
147 -115 17 -22 17 -23 -11 -18 -15 3 -40 8 -54 11 -14 3 -36 2 -49 -3 -20 -7
-13 -10 40 -16 36 -4 163 -23 284 -43 200 -33 219 -35 228 -20 5 10 18 17 28
17 27 0 25 17 -2 26 -13 4 -54 32 -93 64 -121 98 -241 175 -220 140 3 -5 12
-10 20 -10 8 0 17 -5 21 -11 5 -9 -1 -10 -22 -4 -16 4 -42 9 -59 10 -16 1 -49
8 -73 14 -24 7 -49 10 -55 8 -7 -3 2 -8 18 -11 41 -10 57 -19 53 -31 -2 -5 -7
-9 -11 -7 -22 7 39 -61 79 -88 24 -17 44 -33 44 -36 0 -8 -113 67 -165 110
-27 23 -67 53 -87 66 -46 31 -36 38 64 46 66 6 83 3 168 -26 52 -18 120 -43
151 -56 160 -67 328 -44 499 69 52 34 117 85 94 73 -5 -2 -28 0 -50 5 -21 5
-48 12 -59 14 -11 3 -40 7 -65 10 -90 8 -186 27 -207 41 -12 8 -29 14 -36 14
-8 0 -26 10 -41 21 -19 15 -41 21 -70 21 -46 -1 -206 -48 -206 -60 0 -11 -70
-35 -77 -28 -4 3 -2 6 3 6 5 0 34 18 64 41 79 59 180 116 220 124 37 6 95 -6
245 -52 75 -23 109 -27 205 -28 109 0 118 2 182 32 83 39 142 87 209 171 61
77 62 92 0 19 -51 -61 -124 -126 -115 -103 7 17 -6 21 -22 7 -5 -5 -20 -12
-34 -16 -23 -6 -23 -5 5 15 l30 22 -30 -7 c-16 -3 -31 -11 -33 -16 -2 -5 -8
-9 -13 -9 -6 0 -7 6 -3 13 6 9 4 9 -7 2 -16 -12 -30 -12 -78 -1 l-33 8 28 20
c18 12 21 17 9 13 -73 -25 -179 -45 -239 -45 -144 0 -150 21 -20 65 49 17 98
36 109 43 20 13 20 13 0 7 -30 -11 -179 -15 -169 -5 5 5 38 20 74 34 36 13 57
25 48 25 -26 1 -93 -28 -178 -76 -89 -51 -122 -56 -65 -10 22 18 79 69 127
114 65 61 96 84 124 89 20 4 101 4 180 0 205 -10 300 16 406 112 55 50 169
224 156 237 -2 2 -32 -12 -66 -31 -39 -22 -60 -40 -56 -47 4 -7 4 -9 0 -6 -4
4 -59 -17 -122 -47 -102 -48 -320 -119 -426 -138 -40 -7 -56 5 -33 24 8 7 15
21 15 31 0 19 100 162 129 187 33 26 84 41 193 57 176 26 245 55 326 133 28
27 63 75 80 108 33 66 87 223 79 230 -3 3 -10 -10 -17 -30 -6 -19 -18 -40 -27
-47 -8 -7 -19 -23 -24 -36 -9 -24 -59 -34 -59 -11 0 6 -7 3 -16 -8 -15 -19
-15 -19 -5 1 5 11 39 50 75 87 104 104 77 101 -31 -4 -223 -216 -312 -297
-378 -343 -38 -27 -78 -57 -89 -68 -11 -12 -27 -17 -42 -14 -13 2 -24 1 -24
-2 0 -3 -12 -14 -25 -24 l-25 -18 26 68 c15 37 37 97 50 133 13 36 28 74 33
85 5 11 19 48 32 83 12 35 35 76 50 91 15 16 74 48 131 72 56 24 128 63 159
87 87 65 168 200 183 307 l6 40 -15 -46 c-13 -39 -19 -47 -41 -46 -16 0 -23 4
-20 12 2 7 -3 12 -12 11 -10 -1 -16 6 -16 16 1 10 -2 15 -7 12 -19 -11 -8 14
16 36 14 13 25 30 25 37 0 7 -66 -64 -147 -160 -201 -234 -215 -252 -258 -332
-43 -80 -61 -102 -51 -65 3 14 6 54 7 90 1 48 3 58 9 40 8 -24 8 -24 9 5 1 17
6 36 12 42 6 6 12 31 14 55 2 23 8 61 13 83 6 22 13 58 16 80 14 94 47 167 94
209 175 156 204 207 208 361 1 50 0 70 -2 45 -10 -118 -17 -151 -35 -172 l-19
-23 10 28 c16 45 12 55 -8 17 -9 -19 -21 -35 -27 -35 -5 0 -16 -4 -23 -9 -37
-23 -32 25 15 144 40 103 65 179 44 135 -50 -103 -221 -522 -221 -538 0 -7 -7
-22 -16 -33 -15 -18 -15 -18 -11 4 4 18 3 21 -7 13 -10 -9 -12 5 -10 67 l3 77
-9 -75 c-42 -337 -67 -398 -74 -183 -4 105 -20 198 -37 208 -4 3 -4 -8 1 -24
7 -26 14 -129 11 -173 -1 -12 -6 -15 -18 -11 -13 5 -15 3 -9 -13 16 -38 18
-54 7 -54 -6 0 -11 5 -11 11 0 5 -3 8 -8 5 -4 -2 -27 9 -52 25 l-45 30 40 -37
c22 -20 60 -55 84 -77 l44 -40 -6 -101 c-10 -164 -91 -403 -128 -380 -4 2 -5
13 -2 24 3 11 8 18 12 15 4 -2 13 29 20 69 14 78 8 221 -11 247 -6 9 -8 -7 -4
-53 5 -46 3 -67 -5 -70 -11 -4 -14 -18 -18 -72 -2 -33 -11 -11 -15 39 -6 61
-23 80 -30 34 -4 -19 -5 -47 -4 -64 2 -24 -1 -29 -15 -27 -12 2 -17 -2 -15
-12 2 -8 -1 -15 -7 -15 -5 0 -9 7 -7 15 2 8 -2 15 -8 15 -20 3 -25 4 -40 13
-8 5 -6 -2 6 -15 12 -13 44 -55 73 -92 42 -57 51 -75 51 -110 0 -69 -56 -193
-158 -351 -67 -104 -67 -78 3 174 16 57 18 138 5 180 -5 17 -7 3 -7 -43 0 -38
-5 -73 -11 -79 -9 -9 -12 -9 -12 1 0 11 -3 11 -14 2 -11 -10 -17 -8 -25 6 -8
14 -10 -5 -11 -75 0 -60 -4 -91 -10 -87 -5 3 -10 14 -10 23 0 10 -9 25 -20 35
-14 11 -20 30 -21 59 -1 24 -5 57 -10 73 -5 19 -6 -1 -3 -55 l4 -85 -21 40
c-12 22 -28 47 -35 56 -8 9 -19 36 -24 60 l-9 44 3 -46 c2 -29 18 -74 41 -120
21 -41 53 -103 71 -139 19 -36 34 -78 34 -94 0 -34 -89 -144 -206 -256 -95
-90 -108 -78 -36 34 63 95 89 150 97 201 4 32 3 35 -4 18 -14 -31 -19 -29 -13
5 l5 27 -20 -25 c-10 -14 -30 -46 -43 -72 -14 -26 -27 -43 -30 -38 -3 5 -7 -7
-8 -28 -1 -20 -13 -59 -26 -87 l-25 -50 0 55 c0 35 3 48 8 36 14 -37 17 7 6
123 -9 106 -11 112 -24 88 l-14 -25 -23 23 c-13 13 -24 33 -24 45 0 11 -4 20
-8 20 -5 0 -6 23 -2 50 7 58 -4 69 -14 13 -17 -107 -1 -208 59 -372 31 -86 28
-106 -21 -161 -48 -53 -274 -193 -274 -170 0 4 22 29 48 56 54 55 106 128 123
171 16 43 27 123 17 129 -5 3 -8 2 -7 -3 4 -25 -5 -43 -38 -76 -20 -21 -42
-37 -49 -37 -6 0 -19 -17 -27 -37 -9 -21 -16 -32 -16 -25 -2 25 -20 11 -31
-23 -33 -101 -36 -1 -4 153 9 40 13 78 11 85 -3 6 -6 3 -7 -8 0 -11 -7 -28
-15 -38 -13 -18 -14 -18 -25 4 -9 17 -14 19 -21 8 -6 -10 -10 -7 -18 13 -11
29 -4 62 23 119 l17 34 -20 -25 c-11 -14 -31 -60 -45 -102 -32 -95 -33 -176
-6 -284 25 -96 20 -134 -22 -169 -44 -38 -228 -116 -228 -98 0 3 22 25 50 50
70 63 112 151 116 245 2 40 0 64 -4 53 -9 -25 -39 -31 -44 -9 -4 23 -194 -209
-225 -276 -6 -14 -12 -18 -12 -10 -1 8 6 28 14 43 8 16 24 60 35 98 12 38 34
99 49 137 65 154 63 148 46 128 -11 -15 -72 -45 -93 -46 -4 0 22 44 37 63 8 9
12 19 9 22 -12 12 -119 -119 -150 -183 -29 -60 -32 -76 -33 -158 0 -75 4 -99
24 -142 14 -29 21 -55 17 -59 -7 -8 -118 46 -124 60 -10 21 -20 1 -26 -50 -4
-32 -12 -75 -18 -95 -10 -35 -14 -38 -47 -37 -34 2 -34 2 -6 6 33 5 45 18 45
48 0 17 -2 17 -13 -5 -10 -19 -21 -25 -47 -26 -52 -2 -56 -4 -41 -13 8 -6 -7
-11 -45 -16 -66 -8 -76 0 -95 68 -12 47 -41 78 -61 66 -32 -18 -372 -81 -393
-73 -6 3 -48 60 -94 128 l-83 124 52 169 c29 92 57 183 63 201 9 29 8 35 -19
63 -33 35 -154 131 -260 206 l-70 50 -101 -66 c-86 -57 -162 -116 -248 -194
-12 -11 -28 -16 -41 -13 -52 13 -238 37 -255 33 -28 -8 -41 43 -47 186 -4 125
-5 129 -26 123 -11 -3 -31 -6 -43 -6 -29 0 -93 -58 -131 -118 -31 -49 -84
-178 -100 -247 -23 -93 -23 -143 -3 -183 20 -39 58 -72 84 -72 10 0 18 -24 27
-83 7 -45 25 -131 40 -192 20 -79 25 -112 16 -117 -7 -5 -12 1 -14 15 -2 12
-7 31 -12 42 -5 11 -15 43 -23 70 -14 47 -15 48 -16 16 -1 -25 -5 -32 -16 -28
-21 9 -90 -53 -92 -83 -2 -32 17 -95 56 -189 17 -41 29 -76 27 -78 -2 -2 -19
32 -39 74 -42 93 -94 258 -103 329 -5 42 -9 50 -26 50 -11 -1 -29 10 -39 24
-17 22 -18 32 -8 90 6 36 11 108 11 160 2 87 -1 101 -30 163 -45 98 -89 153
-191 240 l-90 76 -11 -57 c-6 -31 -15 -73 -20 -92 -5 -19 -12 -74 -16 -121
-12 -158 32 -253 184 -397 74 -69 75 -71 37 -56 -119 48 -257 136 -343 217
-38 37 -38 42 14 161 88 200 95 324 27 476 -20 45 -123 181 -123 163 0 -5 3
-13 8 -17 4 -4 7 -29 8 -54 6 -231 4 -323 -5 -357 -6 -22 -11 -58 -12 -80 -2
-37 -2 -38 -6 -7 -3 23 -9 32 -23 32 -10 0 -21 9 -25 19 -15 47 -22 130 -15
176 7 45 47 201 65 250 16 43 -61 -85 -98 -165 -67 -142 -62 -269 17 -400 48
-79 78 -140 68 -140 -27 0 -234 253 -258 316 -15 39 -15 45 4 85 10 24 44 78
74 120 68 95 85 132 104 219 15 72 8 201 -16 283 -17 58 -19 41 -6 -43 6 -41
9 -88 5 -105 -4 -16 -7 -26 -8 -22 0 5 -9 1 -18 -9 -17 -17 -18 -15 -23 42
l-5 59 -8 -40 c-11 -54 -77 -248 -88 -260 -5 -5 -9 2 -9 18 0 15 -4 27 -8 27
-12 0 4 116 22 167 8 22 12 43 10 46 -10 10 69 140 101 167 8 7 15 17 15 22 0
21 -185 -202 -207 -250 -39 -84 -49 -175 -29 -281 30 -164 20 -169 -39 -21
-65 165 -85 232 -85 286 0 83 22 115 122 185 48 34 106 82 129 106 71 77 118
206 133 363 3 30 3 46 0 35 -16 -55 -48 -114 -64 -118 -10 -2 -31 -24 -46 -48
-25 -38 -182 -248 -205 -273 -4 -5 -1 13 6 39 8 26 16 61 17 76 1 16 5 29 9
29 4 0 7 11 7 24 0 37 48 131 83 160 17 14 28 26 24 26 -13 0 -70 -44 -103
-80 -76 -83 -106 -165 -118 -325 -4 -52 -10 -95 -13 -95 -14 0 -45 186 -46
265 0 109 22 146 140 235 142 108 189 165 247 305 24 56 57 150 58 162 0 1 -7
0 -15 -3 -8 -3 -14 -9 -13 -12 5 -18 -14 -82 -23 -77 -5 4 -9 3 -10 -2 -3 -31
-12 -48 -46 -87 -21 -25 -46 -45 -56 -46 -16 0 -15 3 6 33 74 99 35 64 -53
-48 -73 -94 -140 -168 -146 -162 -2 2 12 21 31 43 19 21 35 48 35 59 0 12 4
25 9 30 5 6 14 28 21 50 18 55 54 99 118 146 31 21 51 39 46 39 -15 0 -116
-68 -152 -103 -34 -32 -96 -129 -105 -163 -3 -11 -5 2 -6 27 0 25 6 68 14 96
15 50 30 69 134 159 74 65 101 160 85 291 l-9 68 -5 -85 c-4 -75 -7 -85 -23
-82 -10 2 -33 -6 -51 -16 l-33 -20 18 49 c20 51 26 93 7 49 -6 -14 -24 -56
-40 -95 -16 -38 -40 -91 -53 -116 -14 -26 -25 -58 -26 -70 l0 -24 -10 25 c-19
45 50 329 107 442 27 53 31 75 11 62 -7 -5 -1 1 13 13 l25 23 7 -23 c24 -75
47 -129 48 -112 2 27 124 130 245 206 160 101 385 197 472 202 l38 2 8 -55
c48 -303 104 -536 143 -585 16 -19 16 -19 9 5 -4 14 -15 41 -25 61 -20 41 -46
156 -37 165 3 4 9 -7 13 -22 20 -89 110 -278 140 -297 7 -4 16 -24 20 -45 4
-20 11 -45 16 -56 8 -14 7 -17 -4 -10 -10 6 -11 5 -2 -7 24 -30 86 -186 109
-274 51 -198 79 -543 55 -685 -14 -82 -77 -276 -115 -350 l-24 -47 79 78 c97
95 173 149 310 222 262 138 473 163 779 90 57 -14 111 -27 120 -31 9 -3 13 -2
9 2 -3 4 14 28 38 54 24 26 50 59 56 75 7 15 16 27 20 27 18 0 6 -55 -24 -113
-18 -34 -34 -65 -36 -69 -2 -5 2 -8 10 -8 27 -1 166 -91 275 -178 139 -112
140 -113 110 -65 -117 185 -156 380 -124 608 9 61 19 160 22 220 9 152 58 326
259 924 42 124 74 226 72 228 -4 5 -46 -92 -46 -107 0 -7 -6 -26 -14 -43 -22
-51 -65 -170 -72 -199 -3 -16 -10 -28 -14 -28 -5 0 -11 -19 -15 -42 -4 -24
-13 -59 -20 -78 -7 -19 -28 -82 -46 -139 -37 -117 -52 -125 -19 -10 21 73 40
143 60 227 6 24 8 47 5 52 -3 4 2 39 11 77 8 37 17 79 20 93 10 48 179 560
185 560 4 0 3 -19 -2 -42 -6 -22 -10 -65 -10 -95 -1 -29 -5 -56 -10 -59 -5 -3
-9 -24 -9 -46 0 -42 7 -48 13 -12 1 10 5 24 9 29 3 6 29 84 57 174 29 89 54
161 56 159 4 -3 -83 -296 -129 -436 -4 -12 -4 -21 1 -20 4 2 49 -38 99 -88
103 -101 213 -181 308 -224 79 -36 241 -70 334 -70 256 0 543 126 720 315 74
79 147 202 224 378 156 358 280 561 446 730 133 136 298 261 410 311 23 10 42
23 42 29 0 6 -62 8 -172 4 -205 -7 -326 -28 -708 -121 -170 -41 -388 -86 -419
-86 -12 0 -20 4 -17 8 12 19 46 299 46 375 0 61 -5 91 -18 117 -45 84 -241
188 -462 245 -89 23 -217 45 -262 45 l-38 0 19 48 c27 68 51 195 50 261 -1 51
-3 47 -15 -42 -7 -53 -18 -105 -24 -115 -9 -14 -10 -13 -5 8 9 47 15 224 7
214 -5 -5 -14 -38 -21 -74 -7 -36 -28 -110 -47 -165 -19 -55 -41 -128 -49
-163 -8 -34 -21 -75 -29 -90 -8 -15 -21 -89 -30 -165 -17 -141 -32 -196 -74
-257 -54 -79 -90 -166 -105 -257 -18 -104 -58 -212 -157 -418 -37 -77 -77
-166 -89 -198 -28 -76 -59 -137 -70 -137 -5 0 -19 16 -31 36 -15 23 -26 32
-32 26 -15 -15 10 -112 28 -112 12 0 12 -4 0 -29 -19 -36 -37 -43 -70 -26 -18
10 -24 10 -19 2 10 -17 11 -47 1 -41 -10 6 -34 -44 -25 -53 4 -3 15 1 25 10
38 35 31 15 -8 -23 -22 -22 -36 -40 -30 -40 14 0 13 -27 -2 -34 -10 -5 -10 -7
0 -12 6 -3 12 -10 12 -16 0 -6 -8 -4 -17 4 -10 9 -24 13 -32 10 -17 -6 -33 19
-20 34 6 8 5 13 -5 17 -10 4 -16 -2 -18 -21 -2 -19 -10 -28 -25 -30 -13 -2
-23 2 -23 8 0 6 -4 9 -9 6 -5 -4 -12 0 -14 6 -4 8 -6 7 -6 -4 -1 -11 -11 -18
-28 -20 -23 -2 -28 -7 -25 -28 1 -14 7 -27 13 -28 6 -3 6 -9 -1 -18 -13 -15
-4 -38 11 -29 5 4 9 -4 9 -15 0 -13 -8 -24 -18 -27 -14 -3 -17 -12 -14 -41 2
-28 1 -33 -7 -22 -9 12 -11 11 -11 -6 0 -12 -6 -27 -14 -33 -19 -16 -38 12
-62 94 -10 33 -19 52 -21 43 -7 -27 -23 -21 -23 7 0 27 -9 32 -28 13 -9 -9
-12 -7 -12 12 l-1 25 -15 -27 c-8 -16 -19 -28 -24 -28 -12 0 -13 37 -1 44 5 3
12 26 15 51 4 24 12 48 18 51 18 11 40 -28 36 -64 -3 -20 0 -31 6 -29 6 2 10
21 10 41 -1 28 2 34 11 26 9 -7 16 -5 26 7 8 9 9 14 2 10 -6 -4 -18 0 -27 8
-8 8 -19 15 -23 14 -10 -3 -46 12 -53 21 -3 4 -15 -13 -27 -37 -13 -24 -19
-41 -14 -38 5 3 12 -3 16 -13 6 -21 -3 -52 -16 -52 -4 0 -7 -18 -6 -40 1 -43
23 -54 47 -25 18 22 27 19 64 -18 28 -29 41 -54 52 -104 3 -18 -86 -22 -98 -3
-8 12 -8 11 -4 -4 7 -20 -23 -110 -50 -151 -8 -13 -17 -38 -19 -56 -3 -22 -17
-45 -40 -66 -19 -17 -35 -39 -35 -47 0 -18 -59 -135 -60 -118 0 7 5 23 11 34
8 16 8 19 -1 13 -12 -8 -60 -107 -60 -125 0 -5 7 -7 15 -4 20 8 19 4 -11 -50
-29 -52 -38 -59 -23 -18 8 24 6 23 -26 -13 -19 -22 -47 -62 -62 -90 -14 -27
-39 -69 -54 -92 -16 -23 -29 -45 -29 -50 0 -5 -12 -26 -26 -47 -14 -21 -46
-77 -71 -124 -87 -165 -260 -422 -372 -552 -79 -92 -76 -89 -67 -65 5 11 10
27 14 35 3 8 -5 2 -18 -14 -22 -26 -24 -27 -31 -10 -9 27 3 47 196 334 244
362 349 558 489 911 37 96 82 274 123 499 35 186 36 205 37 425 1 127 -3 238
-8 248 -6 12 -4 17 6 17 8 0 20 -10 26 -22 l11 -23 0 23 c1 12 -4 22 -10 22
-14 0 -39 63 -39 102 0 18 -7 55 -15 82 -8 27 -18 99 -21 160 -3 61 -14 147
-24 191 -25 107 -89 297 -91 265 0 -14 -3 -19 -6 -12 -11 29 -20 8 -21 -49 0
-34 -4 -64 -10 -68 -12 -7 -3 -111 9 -111 5 0 9 15 10 33 0 17 3 26 6 20 10
-27 21 -11 17 25 -8 58 10 19 37 -78 21 -79 23 -101 20 -315 -1 -126 -5 -234
-8 -239 -13 -20 -33 61 -33 133 0 79 -19 164 -36 159 -12 -4 -41 114 -55 227
-13 106 -8 187 20 308 21 87 29 253 13 243 -5 -3 -16 20 -26 50 -12 38 -32 71
-67 107 -69 72 -102 145 -94 206 l6 46 -98 101 c-78 81 -112 108 -165 133 -50
24 -80 47 -119 92 -65 76 -74 80 -133 67 -26 -5 -57 -7 -69 -4 -30 7 -93 70
-124 124 -26 44 -26 45 -8 78 26 48 22 94 -9 121 -22 18 -26 31 -26 75 0 76
-9 98 -44 114 -19 8 -24 13 -13 14 10 0 29 -11 42 -25 22 -21 25 -33 25 -92
l0 -67 22 21 c12 12 22 30 23 40 0 10 4 24 9 31 4 7 4 12 -1 11 -21 -4 -25 2
-10 14 10 6 19 26 21 42 5 37 52 122 83 151 13 12 23 26 23 32 0 5 16 26 36
46 20 20 34 36 31 36 -3 0 27 34 67 75 40 41 76 75 79 75 4 0 16 9 27 20 12
12 25 18 30 15 6 -4 10 1 10 9 0 9 5 16 11 16 6 0 32 15 58 34 118 85 269 139
386 135 27 0 95 -12 150 -26 152 -39 165 -41 161 -34 -5 7 -62 36 -88 45 -29
9 -22 29 7 22 14 -3 37 -8 53 -12 73 -14 111 -27 116 -39 4 -10 -4 -12 -30 -8
-22 4 -34 2 -34 -6 0 -6 18 -11 43 -11 59 0 115 -18 130 -41 6 -10 20 -19 30
-19 20 0 51 -27 60 -52 11 -32 26 -20 17 13 -7 22 -6 29 3 26 19 -6 20 -53 2
-71 -15 -14 -18 -14 -41 0 -17 12 -24 24 -22 43 l3 26 -97 1 c-92 2 -115 -4
-85 -23 29 -19 77 -86 77 -108 0 -13 -12 -36 -27 -50 -30 -28 -33 -28 -138 -5
-104 22 -135 24 -135 8 0 -9 8 -26 19 -39 29 -37 34 -65 16 -83 -21 -20 -48
-20 -103 1 -42 16 -45 16 -58 -1 -11 -15 -11 -24 0 -50 7 -17 20 -33 30 -34
15 -3 16 -1 6 18 -9 16 -9 20 -1 15 7 -4 17 -2 24 3 18 14 76 20 80 8 2 -5 14
-3 27 7 14 9 20 17 15 17 -5 0 2 8 15 17 14 10 29 18 33 18 5 0 14 7 20 16 15
20 42 30 53 19 5 -5 25 -10 44 -12 32 -3 35 -1 36 25 1 32 24 53 36 34 4 -6
12 9 20 36 6 26 16 47 20 47 4 0 8 9 8 21 0 14 -5 19 -14 16 -8 -3 -22 1 -33
8 -16 13 -14 14 25 15 43 0 75 -11 100 -36 8 -8 24 -11 41 -8 25 5 29 3 34
-25 4 -17 13 -31 21 -31 7 0 17 -11 20 -25 5 -20 13 -25 36 -25 17 0 30 -4 30
-9 0 -6 13 -24 29 -42 26 -28 30 -29 34 -13 4 17 5 17 6 2 0 -10 6 -18 11 -18
16 0 11 36 -7 52 -22 18 -84 44 -99 40 -23 -5 -36 27 -32 78 3 46 1 51 -22 59
-24 9 -24 9 -3 10 12 1 34 -10 49 -24 16 -15 34 -23 45 -20 15 5 89 -30 89
-42 0 -3 -16 4 -36 16 -19 12 -41 21 -47 21 -17 -1 21 -28 73 -53 25 -12 72
-50 106 -84 34 -35 65 -63 69 -63 5 0 -2 11 -14 24 -19 20 -27 37 -30 67 -1
10 -127 109 -196 156 -123 82 -214 126 -401 194 -50 18 -147 37 -234 45 -25 3
-86 9 -137 14 -91 10 -115 10 -183 3z m-717 -325 c-26 -24 -64 -62 -86 -86
-22 -23 -42 -40 -45 -37 -11 11 147 165 170 165 4 0 -13 -19 -39 -42z m-175
-223 c-6 -14 -13 -23 -15 -21 -5 5 15 46 22 46 3 0 -1 -11 -7 -25z m-67 -128
c-8 -8 -11 -7 -11 4 0 20 13 34 18 19 3 -7 -1 -17 -7 -23z m139 -129 c0 -27 4
-58 10 -68 5 -10 7 -26 3 -35 -11 -30 -32 25 -26 70 2 23 -2 60 -11 85 l-15
45 20 -24 c13 -16 19 -38 19 -73z m-103 10 c-3 -8 -6 -5 -6 6 -1 11 2 17 5 13
3 -3 4 -12 1 -19z m28 -58 c3 -5 1 -10 -4 -10 -6 0 -11 5 -11 10 0 6 2 10 4
10 3 0 8 -4 11 -10z m19 -63 c11 -42 -15 -33 -29 10 -5 18 -3 22 8 17 8 -3 18
-15 21 -27z m-397 -349 c-3 -8 -6 -5 -6 6 -1 11 2 17 5 13 3 -3 4 -12 1 -19z
m118 -233 c29 -56 38 -83 41 -135 l3 -65 -9 55 c-6 30 -26 88 -45 128 -19 40
-35 78 -35 84 0 16 3 12 45 -67z m488 -62 c-8 -3 -11 -15 -8 -31 5 -24 4 -25
-4 -5 -13 28 -3 69 13 52 8 -8 8 -13 -1 -16z m-193 -48 c0 -17 -2 -17 -10 -5
-5 8 -10 24 -10 35 0 17 2 17 10 5 5 -8 10 -24 10 -35z m160 35 c0 -5 -4 -10
-10 -10 -5 0 -10 5 -10 10 0 6 5 10 10 10 6 0 10 -4 10 -10z m-677 -85 c5 -28
4 -34 -3 -20 -8 19 -14 73 -6 64 2 -2 6 -22 9 -44z m687 24 c0 -6 -4 -7 -10
-4 -5 3 -10 11 -10 16 0 6 5 7 10 4 6 -3 10 -11 10 -16z m-155 -55 l5 -39 -14
35 c-18 43 -20 68 -6 54 6 -6 13 -28 15 -50z m-285 -19 c0 -5 -5 -3 -10 5 -5
8 -10 20 -10 25 0 6 5 3 10 -5 5 -8 10 -19 10 -25z m524 -69 c19 -29 46 -60
59 -69 29 -19 100 -41 184 -58 35 -6 60 -16 57 -21 -3 -5 13 -16 35 -25 23 -9
41 -19 41 -23 0 -4 11 -20 25 -36 27 -31 85 -127 64 -106 -7 6 -19 12 -26 12
-17 0 -2 -32 30 -67 43 -48 2 -20 -55 37 -66 65 -93 78 -57 28 16 -21 19 -33
11 -36 -8 -2 -8 -8 3 -19 8 -8 13 -18 10 -23 -3 -5 0 -12 6 -16 8 -4 9 -3 5 4
-4 7 -3 12 2 12 5 0 12 -9 15 -20 4 -15 0 -20 -14 -20 -11 0 -22 7 -25 15 -4
8 -12 15 -20 15 -12 0 -71 75 -72 93 -1 16 -63 109 -69 103 -3 -3 -12 -1 -20
5 -8 8 -13 8 -13 1 0 -23 14 -44 35 -52 15 -6 28 -27 43 -71 12 -35 20 -64 18
-66 -6 -6 -95 70 -112 95 -10 15 -30 58 -44 97 -21 58 -33 74 -67 98 -23 15
-45 38 -49 50 -4 12 -15 33 -25 46 -16 20 -27 71 -15 71 2 0 20 -24 40 -54z
m-287 22 c-3 -8 -6 -5 -6 6 -1 11 2 17 5 13 3 -3 4 -12 1 -19z m-127 -51 c37
-29 112 -178 98 -193 -3 -3 -18 27 -33 65 -20 53 -38 80 -71 110 -39 34 -34
50 6 18z m857 6 c1 -10 8 -37 17 -60 9 -23 13 -49 10 -58 -10 -25 -39 -13 -42
17 -2 15 -10 32 -18 38 -19 17 -18 57 4 69 24 14 28 14 29 -6z m77 -14 c5 -5
5 -21 -2 -41 -9 -25 -10 -27 -7 -6 3 15 1 30 -5 33 -5 3 -10 -3 -10 -15 0 -31
-17 -16 -22 20 -4 27 -2 30 16 24 12 -3 25 -10 30 -15z m-1634 -89 c-13 -8
-13 -11 1 -26 13 -12 18 -13 24 -3 5 8 4 10 -3 5 -7 -4 -12 -2 -12 3 0 6 5 11
11 11 5 0 8 3 6 8 -3 4 6 8 20 9 18 1 22 -2 13 -7 -21 -13 -22 -40 -2 -32 15
5 15 4 3 -11 -7 -9 -16 -15 -20 -13 -3 2 -15 0 -26 -5 -30 -12 52 -11 94 1 46
13 44 12 -100 -63 -277 -144 -489 -296 -665 -477 -64 -66 -123 -120 -131 -120
-8 0 -11 -4 -8 -10 3 -5 1 -10 -4 -10 -6 0 -11 4 -11 8 0 10 171 195 225 244
65 58 216 168 325 237 55 35 99 66 96 68 -2 3 -14 -1 -26 -7 -12 -6 -28 -9
-36 -6 -7 3 -18 -3 -24 -14 -9 -17 -58 -50 -73 -50 -12 0 -13 53 -1 75 7 14 9
23 4 20 -6 -4 -10 -3 -10 1 0 9 41 44 52 44 5 0 7 4 4 9 -3 5 1 11 8 14 8 3
17 1 20 -6 2 -7 5 -4 5 6 1 10 6 15 11 12 6 -3 10 -2 10 3 0 16 45 20 59 5 9
-10 17 -11 34 -1 12 6 24 11 27 10 10 -4 6 23 -5 30 -6 5 -3 8 8 8 9 0 17 4
17 8 0 13 41 31 70 31 20 1 22 -1 10 -9z m1480 -20 c0 -5 -7 -10 -16 -10 -8 0
-12 5 -9 10 3 6 10 10 16 10 5 0 9 -4 9 -10z m140 -52 c0 -5 -7 -3 -15 6 -8 8
-15 18 -15 22 0 3 7 1 15 -6 8 -7 15 -17 15 -22z m-1725 12 c3 -6 -1 -7 -9 -4
-18 7 -21 14 -7 14 6 0 13 -4 16 -10z m912 -72 c-3 -8 -6 -5 -6 6 -1 11 2 17
5 13 3 -3 4 -12 1 -19z m2610 -40 c-3 -8 -6 -5 -6 6 -1 11 2 17 5 13 3 -3 4
-12 1 -19z m-3352 2 c-3 -5 -2 -10 4 -10 6 0 7 -7 4 -17 -4 -11 -3 -14 5 -9 7
4 12 15 12 24 1 15 2 15 11 -1 12 -20 -15 -58 -120 -172 -195 -211 -289 -322
-351 -414 -49 -74 -98 -127 -112 -123 -5 1 -7 -2 -4 -7 14 -21 -7 -41 -43 -41
-31 0 -38 -5 -50 -31 -8 -19 -27 -37 -48 -45 -18 -8 -32 -18 -29 -22 2 -4 -5
-9 -17 -9 -12 -1 -30 -12 -40 -25 -10 -13 -15 -16 -11 -8 5 11 2 10 -13 -2
-11 -10 -27 -18 -36 -18 -10 0 -27 -27 -48 -80 -41 -99 -51 -98 -14 2 70 184
188 385 320 542 109 131 284 286 400 355 56 33 119 74 140 91 39 31 50 37 40
20z m1772 -42 c-3 -7 -5 -2 -5 12 0 14 2 19 5 13 2 -7 2 -19 0 -25z m1570 -10
c-3 -8 -6 -5 -6 6 -1 11 2 17 5 13 3 -3 4 -12 1 -19z m-3754 -28 c-7 -27 -13
-25 -11 4 1 14 5 23 9 20 4 -2 5 -13 2 -24z m3744 -32 c-3 -7 -5 -2 -5 12 0
14 2 19 5 13 2 -7 2 -19 0 -25z m-2441 10 c8 -7 23 -21 34 -32 10 -10 26 -16
34 -13 9 4 32 -8 55 -27 22 -19 56 -37 76 -40 26 -5 35 -12 35 -27 0 -11 10
-24 23 -29 19 -7 16 -9 -18 -9 -51 -1 -113 16 -147 41 -16 11 -28 16 -28 11 0
-4 -4 -3 -8 2 -4 6 -26 25 -48 43 -23 17 -44 43 -46 57 -7 36 9 46 38 23z
m-1378 -12 c-7 -8 -15 -12 -17 -11 -5 6 10 25 20 25 5 0 4 -6 -3 -14z m22 -20
c0 -2 -7 -9 -15 -16 -13 -11 -14 -10 -9 4 5 14 24 23 24 12z m2190 -36 c-11
-22 -23 -40 -25 -40 -3 0 4 18 15 40 11 22 23 40 25 40 3 0 -4 -18 -15 -40z
m1597 8 c-3 -7 -5 -2 -5 12 0 14 2 19 5 13 2 -7 2 -19 0 -25z m-2571 -5 c-7
-7 -26 7 -26 19 0 6 6 6 15 -2 9 -7 13 -15 11 -17z m415 -30 c13 -16 12 -17
-3 -4 -17 13 -22 21 -14 21 2 0 10 -8 17 -17z m2146 -70 c-2 -16 -4 -5 -4 22
0 28 2 40 4 28 2 -13 2 -35 0 -50z m-21 -119 c-19 -96 -42 -184 -52 -193 -3
-3 -4 3 -1 14 18 62 37 145 35 152 -3 11 25 114 29 109 2 -2 -3 -39 -11 -82z
m-1379 54 c-3 -8 -6 -5 -6 6 -1 11 2 17 5 13 3 -3 4 -12 1 -19z m1333 -148
c-7 -28 -16 -53 -21 -56 -5 -3 -9 -19 -9 -35 0 -18 4 -28 10 -24 11 7 9 2 -43
-125 -19 -47 -47 -124 -63 -172 -30 -95 -45 -113 -21 -26 16 58 18 98 4 98 -4
0 -13 -13 -18 -30 -6 -16 -15 -28 -19 -25 -12 7 16 84 39 110 10 11 36 56 57
100 21 44 40 83 42 88 2 4 0 7 -5 7 -5 0 -24 -29 -43 -64 -19 -36 -36 -63 -39
-61 -2 2 17 41 41 87 25 46 55 109 69 141 27 67 37 60 19 -13z m-2721 -105 c0
-5 -6 1 -14 15 -8 14 -14 30 -14 35 0 6 6 -1 14 -15 8 -14 14 -29 14 -35z
m4151 5 c0 -13 -26 -41 -71 -77 -39 -32 -106 -86 -148 -121 -65 -54 -76 -60
-79 -43 -3 19 71 165 89 177 5 3 7 9 4 13 -2 5 21 16 53 26 31 9 73 23 92 30
48 19 60 18 60 -5z m-4154 -287 c3 -31 2 -34 -5 -13 -11 30 -14 66 -5 57 3 -3
8 -23 10 -44z m610 2 c4 -8 14 -15 24 -15 10 0 23 -7 30 -15 16 -19 11 -19
-27 0 -36 18 -62 45 -44 45 6 0 14 -7 17 -15z m1946 -69 c13 8 1 -34 -19 -61
-12 -18 -13 -15 -9 30 5 66 8 75 13 47 2 -12 9 -19 15 -16z m-1952 -26 c0 -5
-2 -10 -4 -10 -3 0 -8 5 -11 10 -3 6 -1 10 4 10 6 0 11 -4 11 -10z m-661 -44
c12 -18 21 -42 21 -54 0 -23 25 -74 32 -66 10 10 68 -93 62 -110 -4 -10 -1
-16 9 -16 8 0 18 -7 21 -16 5 -14 4 -15 -9 -4 -8 7 -15 9 -15 6 0 -14 31 -66
39 -66 4 0 13 -15 19 -32 44 -133 132 -329 143 -322 4 2 22 -18 40 -45 28 -42
79 -84 79 -64 0 14 -110 213 -145 261 -42 59 -43 84 -3 53 36 -29 48 -26 48
10 0 23 -4 30 -14 26 -17 -7 -66 29 -66 47 0 8 14 16 32 20 24 5 37 1 53 -14
12 -11 24 -18 27 -14 9 9 41 -43 34 -55 -6 -10 6 -39 30 -71 6 -8 31 -53 55
-99 45 -86 88 -134 190 -213 31 -24 131 -115 222 -204 134 -129 167 -166 167
-187 0 -21 -5 -27 -22 -27 -24 0 -109 46 -121 67 -8 14 -112 83 -125 83 -4 0
8 -10 26 -22 20 -12 31 -26 28 -35 -3 -7 0 -13 7 -12 26 3 37 -2 37 -16 0 -8
-6 -15 -12 -16 -9 0 -8 -3 1 -6 8 -3 25 -15 37 -27 12 -12 30 -26 40 -33 11
-6 14 -12 7 -12 -6 -1 -25 10 -41 24 -17 14 -33 25 -37 25 -21 0 -147 116
-179 164 -44 66 -57 73 -24 14 52 -96 216 -225 396 -313 82 -40 82 -40 82 -79
l0 -39 -23 21 c-29 27 -44 29 -18 3 17 -17 18 -24 8 -50 -6 -17 -14 -31 -17
-31 -3 0 -18 20 -33 45 -36 57 -59 60 -57 8 3 -53 1 -60 -10 -43 -8 15 -55 49
-175 126 -53 34 -225 173 -312 250 -108 99 -303 411 -385 619 -45 112 -51 132
-87 280 -27 108 -64 230 -85 278 -13 29 1 19 23 -17z m2615 -20 c-3 -15 -8
-25 -11 -23 -2 3 -1 17 3 31 3 15 8 25 11 23 2 -3 1 -17 -3 -31z m-2554 -19
c0 -5 -4 -5 -10 -2 -5 3 -10 14 -10 23 0 15 2 15 10 2 5 -8 10 -19 10 -23z
m662 6 c9 -8 14 -21 12 -28 -3 -7 6 -21 20 -32 13 -11 31 -37 40 -59 l16 -39
-20 25 c-21 25 -89 122 -105 149 -9 16 8 8 37 -16z m421 -13 c10 -18 29 -42
43 -52 13 -11 24 -25 24 -31 -1 -7 -9 -2 -19 11 -11 12 -21 17 -23 11 -3 -10
-68 81 -68 96 0 16 26 -4 43 -35z m107 0 c11 -21 20 -49 20 -60 0 -11 10 -40
21 -63 25 -48 30 -63 70 -217 21 -83 34 -167 45 -299 8 -101 13 -189 11 -195
-2 -6 -7 25 -11 69 -9 98 -51 307 -70 343 -7 15 -17 43 -21 62 -4 19 -18 69
-31 110 -13 41 -29 116 -37 165 -8 50 -17 98 -22 108 -15 34 5 16 25 -23z
m-215 -76 c14 -15 25 -34 25 -42 0 -8 -1 -13 -2 -11 -2 2 -19 21 -37 42 -19
20 -29 37 -22 37 6 0 23 -12 36 -26z m65 -34 c17 -33 28 -60 25 -60 -2 0 -17
24 -32 53 -36 67 -36 67 -29 67 3 0 19 -27 36 -60z m-222 38 c19 -19 15 -49
-5 -41 -23 8 -32 23 -26 40 6 16 15 17 31 1z m1699 -20 c-3 -8 -6 -5 -6 6 -1
11 2 17 5 13 3 -3 4 -12 1 -19z m-1387 -16 c0 -15 -2 -15 -10 -2 -13 20 -13
33 0 25 6 -3 10 -14 10 -23z m1377 -24 c-3 -8 -6 -5 -6 6 -1 11 2 17 5 13 3
-3 4 -12 1 -19z m-1646 -8 c-8 -5 -1 -24 24 -61 31 -48 50 -55 25 -9 -7 13 -6
19 5 24 14 5 75 -61 75 -83 0 -6 4 -11 9 -11 10 0 27 -84 22 -109 -5 -25 9
-61 24 -61 14 0 14 4 0 36 -13 32 -13 35 0 30 8 -3 15 -1 15 4 0 6 -7 10 -15
10 -8 0 -15 7 -15 17 0 14 2 14 20 -2 12 -10 19 -24 16 -31 -3 -7 6 -20 20
-28 18 -12 24 -13 24 -4 1 36 21 -29 24 -79 4 -48 2 -54 -6 -33 -33 76 -51
110 -59 110 -5 0 0 -16 11 -35 22 -39 25 -49 12 -41 -5 3 2 -17 15 -44 16 -34
24 -71 26 -115 1 -36 1 -65 0 -65 -9 0 -53 79 -53 95 1 18 2 17 15 -5 11 -19
14 -21 15 -7 0 9 -9 25 -20 34 -11 10 -20 25 -20 35 0 37 -55 131 -124 210
-79 91 -110 139 -121 187 -5 24 -3 31 9 31 9 0 16 5 16 11 0 5 5 7 11 3 8 -5
8 -8 0 -14z m87 -10 c7 -11 11 -20 9 -20 -2 0 -12 9 -22 20 -10 11 -14 20 -9
20 5 0 15 -9 22 -20z m-34 -6 c9 -22 8 -26 -6 -22 -13 5 -20 38 -8 38 4 0 11
-7 14 -16z m-500 -9 c5 -13 2 -14 -17 -4 -32 17 -33 19 -10 19 12 0 23 -7 27
-15z m152 -12 c-7 -7 -26 7 -26 19 0 6 6 6 15 -2 9 -7 13 -15 11 -17z m473
-15 c12 -21 20 -38 17 -38 -8 0 -46 62 -46 74 0 11 1 10 29 -36z m-679 1 c0
-6 -4 -7 -10 -4 -5 3 -10 11 -10 16 0 6 5 7 10 4 6 -3 10 -11 10 -16z m64 -24
c9 -14 13 -25 9 -25 -12 1 -46 50 -35 50 6 0 17 -11 26 -25z m81 -115 c11 -14
-2 -5 -28 20 -26 24 -47 48 -47 53 0 10 43 -32 75 -73z m-270 22 c-8 -8 -25
10 -19 20 4 6 9 5 15 -3 4 -7 6 -15 4 -17z m273 -103 c13 -16 29 -28 35 -27 7
2 46 -33 87 -77 71 -75 103 -104 85 -75 -5 9 -4 11 4 6 6 -4 9 -11 6 -15 -2
-5 4 -16 14 -25 12 -11 20 -13 23 -6 3 9 89 -75 187 -183 35 -38 10 -33 -28 6
-18 17 -29 25 -26 16 4 -10 33 -39 67 -65 61 -50 178 -180 178 -198 0 -6 -15
6 -33 27 -21 26 -37 36 -48 32 -17 -6 -160 64 -235 116 -48 33 -170 166 -238
259 -26 36 -70 92 -98 125 -64 76 -108 144 -108 166 0 15 4 14 27 -7 28 -26
46 -25 19 1 -9 9 -21 26 -27 38 -12 22 66 -58 109 -114z m-207 84 c13 -16 12
-17 -3 -4 -10 7 -18 15 -18 17 0 8 8 3 21 -13z m-135 -30 c-7 -7 -26 7 -26 19
0 6 6 6 15 -2 9 -7 13 -15 11 -17z m352 -15 c9 -9 12 -9 12 0 0 10 5 10 20 2
24 -13 26 -26 3 -34 -11 -5 -26 2 -42 19 -14 14 -21 25 -15 25 5 0 15 -5 22
-12z m-328 -53 c0 -10 18 -44 39 -75 27 -38 38 -63 36 -83 -2 -18 1 -27 11
-27 8 0 14 -5 14 -10 0 -25 -38 12 -54 52 -10 24 -29 66 -42 93 -13 28 -26 64
-30 80 -6 29 -6 29 9 10 9 -11 17 -29 17 -40z m917 33 c-3 -8 -6 -5 -6 6 -1
11 2 17 5 13 3 -3 4 -12 1 -19z m-179 -53 c29 -45 22 -45 -12 0 -15 19 -23 35
-19 35 4 0 18 -16 31 -35z m10 -70 c-3 -3 -9 2 -12 12 -6 14 -5 15 5 6 7 -7
10 -15 7 -18z m90 -33 c29 -52 44 -102 31 -102 -5 0 -12 8 -16 18 -3 9 -12 24
-19 32 -7 8 -14 28 -16 45 -2 19 -11 34 -26 41 -35 17 -37 24 -6 15 20 -5 37
-21 52 -49z m-213 13 l1 -25 -21 20 c-17 18 -18 22 -5 30 18 11 23 6 25 -25z
m51 -17 c28 -30 17 -30 -18 0 -16 13 -24 32 -15 32 2 0 16 -14 33 -32z m-148
2 c7 -11 11 -20 9 -20 -2 0 -12 9 -22 20 -10 11 -14 20 -9 20 5 0 15 -9 22
-20z m1196 11 c3 -5 -1 -12 -10 -15 -8 -3 -13 -2 -9 3 3 5 -1 12 -7 14 -8 4
-7 6 4 6 9 1 19 -3 22 -8z m16 -51 c-6 -12 -14 -19 -17 -17 -2 3 1 15 7 27 6
12 14 19 17 17 2 -3 -1 -15 -7 -27z m-1462 -5 c-3 -3 -9 2 -12 12 -6 14 -5 15
5 6 7 -7 10 -15 7 -18z m1582 -40 c-6 -15 -13 -25 -16 -23 -2 3 1 17 7 32 7
14 14 24 16 22 2 -2 -1 -16 -7 -31z m-2983 3 c-3 -8 -6 -5 -6 6 -1 11 2 17 5
13 3 -3 4 -12 1 -19z m2133 3 c6 -11 6 -22 1 -25 -5 -3 -11 5 -13 19 -6 30 -2
32 12 6z m-240 -1 c0 -5 -2 -10 -4 -10 -3 0 -8 5 -11 10 -3 6 -1 10 4 10 6 0
11 -4 11 -10z m287 -32 c-3 -8 -6 -5 -6 6 -1 11 2 17 5 13 3 -3 4 -12 1 -19z
m-257 -38 c0 -11 0 -22 0 -25 0 -3 -3 -6 -7 -7 -3 -2 -7 9 -7 25 -1 15 2 27 6
27 4 0 8 -9 8 -20z m-328 -40 c17 -17 27 -34 24 -37 -4 -4 -23 10 -44 30 -20
20 -31 37 -24 37 8 0 27 -14 44 -30z m605 -12 c-3 -8 -6 -5 -6 6 -1 11 2 17 5
13 3 -3 4 -12 1 -19z m2230 -10 c-3 -7 -5 -2 -5 12 0 14 2 19 5 13 2 -7 2 -19
0 -25z m-4661 -15 c-8 -15 -15 -25 -16 -21 0 12 23 58 27 54 3 -2 -2 -17 -11
-33z m195 -23 c-5 -25 -9 -35 -10 -24 -1 28 11 92 16 79 1 -6 -1 -30 -6 -55z
m2859 40 c-9 -6 -10 -10 -3 -10 23 0 43 -31 37 -56 -4 -17 -1 -26 11 -30 10
-4 15 -14 12 -25 -3 -11 -1 -19 4 -19 18 0 8 -15 -18 -27 -31 -15 -28 -17 -36
25 -5 26 -3 32 11 32 15 0 15 2 2 10 -12 7 -13 13 -4 28 15 23 0 54 -21 46 -9
-4 -15 0 -15 8 0 17 9 28 24 28 6 0 4 -5 -4 -10z m98 -32 c-6 -21 -19 -39 -29
-41 -22 -6 -26 11 -5 19 8 3 20 19 26 35 17 40 22 32 8 -13z m-1228 -63 c0 -7
13 -18 30 -25 16 -7 35 -19 41 -26 10 -13 8 -13 -16 -4 -27 10 -28 10 -12 -12
8 -13 20 -22 25 -21 5 1 9 -5 9 -13 0 -12 -2 -12 -16 1 -113 104 -153 145
-144 145 6 0 16 -7 23 -15 7 -8 19 -15 27 -15 9 0 3 10 -14 26 -28 26 -28 26
10 -1 20 -15 37 -33 37 -40z m1098 46 c3 -8 -1 -12 -9 -9 -7 2 -15 10 -17 17
-3 8 1 12 9 9 7 -2 15 -10 17 -17z m-3043 -18 c-4 -10 -15 -49 -25 -88 -11
-38 -19 -60 -19 -49 -1 26 37 154 45 154 4 0 3 -8 -1 -17z m3034 -34 c-13 -26
-20 -21 -12 9 3 12 9 19 14 16 5 -3 4 -14 -2 -25z m-2832 -26 c-3 -10 -5 -4
-5 12 0 17 2 24 5 18 2 -7 2 -21 0 -30z m2798 -29 c-23 -17 -34 -2 -14 22 9
11 15 12 23 4 8 -8 6 -15 -9 -26z m39 -8 c-3 -9 -10 -16 -15 -16 -6 0 -5 9 1
21 13 24 24 20 14 -5z m-2847 -18 c-3 -7 -5 -2 -5 12 0 14 2 19 5 13 2 -7 2
-19 0 -25z m2968 -15 c-8 -44 -12 -404 -4 -408 9 -6 4 -432 -6 -472 -7 -29
-10 -32 -34 -26 -14 3 -28 7 -30 9 -2 2 -10 -1 -18 -7 -9 -9 -13 -8 -13 0 0 6
-17 -7 -37 -30 -20 -23 -71 -66 -113 -97 -75 -56 -89 -71 -123 -125 l-17 -28
22 12 c13 6 32 19 43 28 14 11 13 8 -4 -11 -13 -15 -65 -50 -115 -79 -50 -29
-102 -61 -115 -71 -16 -12 -41 -18 -77 -18 -50 0 -54 2 -54 24 0 38 92 146
125 146 3 0 3 -6 -1 -12 -5 -9 -4 -10 3 -3 5 6 18 36 28 67 16 48 23 58 47 63
32 7 63 64 52 97 -3 12 0 18 10 18 9 0 23 11 32 25 9 14 22 24 28 22 20 -7 35
27 36 76 0 56 19 137 31 137 4 0 13 18 19 41 6 22 20 49 31 60 10 10 19 24 19
31 0 6 3 8 6 5 4 -4 -3 -29 -15 -56 -22 -53 -27 -86 -11 -76 5 3 14 20 19 38
65 219 173 519 196 547 30 37 30 54 1 24 -9 -8 -16 -11 -16 -6 0 5 9 17 20 27
11 10 20 25 20 34 -1 12 -5 11 -19 -6 -20 -24 -41 -30 -41 -13 0 6 7 10 15 10
9 0 18 7 21 15 4 8 15 15 25 15 15 0 18 -6 14 -27z m175 -54 c-19 -128 -32
-193 -41 -209 -9 -16 -9 -11 11 115 16 97 33 176 37 172 2 -2 -1 -37 -7 -78z
m-290 53 c0 -5 -11 -14 -25 -20 -25 -11 -34 -32 -15 -32 6 0 10 -5 10 -11 0
-8 -5 -8 -15 1 -22 18 -18 49 8 60 29 11 37 12 37 2z m-2863 -39 c-3 -10 -5
-4 -5 12 0 17 2 24 5 18 2 -7 2 -21 0 -30z m2781 12 c-3 -3 -13 -2 -22 1 -14
5 -15 9 -4 15 13 8 36 -6 26 -16z m99 -1 c-3 -3 -12 -4 -19 -1 -8 3 -5 6 6 6
11 1 17 -2 13 -5z m-3110 -36 c-3 -7 -5 -2 -5 12 0 14 2 19 5 13 2 -7 2 -19 0
-25z m2188 -6 c-7 -8 -35 7 -35 18 0 6 7 6 20 -2 10 -7 17 -14 15 -16z m915
20 c0 -5 -7 -17 -16 -28 -14 -17 -15 -17 -10 -1 3 10 6 23 6 28 0 5 5 9 10 9
6 0 10 -4 10 -8z m-124 -30 c-18 -16 -18 -16 -6 6 6 13 14 21 18 18 3 -4 -2
-14 -12 -24z m-3643 -8 c1 -10 7 -25 11 -33 6 -9 4 -18 -6 -25 -8 -6 -15 -14
-16 -19 -2 -26 -11 -26 -9 1 1 22 5 31 14 28 7 -3 13 -1 13 4 0 6 -4 10 -9 10
-11 0 -19 30 -13 48 5 17 11 12 15 -14z m3582 6 c-10 -16 -45 -32 -45 -20 0 5
7 10 15 10 8 0 15 5 15 10 0 6 5 10 11 10 5 0 7 -4 4 -10z m209 -29 c-10 -17
-22 -31 -26 -31 -4 0 2 16 14 35 11 20 23 34 25 31 3 -2 -3 -18 -13 -35z
m-3054 -72 c58 -38 109 -101 128 -158 7 -19 11 -61 10 -95 l-1 -61 -7 45 c-6
39 -7 40 -8 13 -2 -35 -16 -44 -26 -17 -12 32 -23 2 -21 -61 l2 -65 -22 38
c-61 108 -118 285 -129 402 -5 60 -5 62 7 30 8 -24 28 -45 67 -71z m147 79
c-3 -8 -6 -5 -6 6 -1 11 2 17 5 13 3 -3 4 -12 1 -19z m2087 -35 c27 -22 42
-29 47 -22 16 27 28 -7 28 -82 l0 -81 -24 26 c-13 14 -32 40 -42 58 -10 18
-24 39 -30 46 -15 16 -17 46 -3 37 22 -14 8 16 -14 30 -13 9 -27 23 -30 32 -7
18 -4 16 68 -44z m263 35 c-3 -8 -6 -5 -6 6 -1 11 2 17 5 13 3 -3 4 -12 1 -19z
m-386 -5 c13 -16 12 -17 -3 -4 -10 7 -18 15 -18 17 0 8 8 3 21 -13z m165 -10
c-7 -7 -26 7 -26 19 0 6 6 6 15 -2 9 -7 13 -15 11 -17z m642 2 c2 -2 -4 -16
-12 -32 l-16 -28 6 30 7 30 -23 -20 c-21 -18 -23 -18 -17 -2 4 10 7 23 7 28 0
9 37 3 48 -6z m-2781 -37 c-3 -7 -5 -2 -5 12 0 14 2 19 5 13 2 -7 2 -19 0 -25z
m2613 28 c0 -3 -4 -8 -10 -11 -5 -3 -10 -1 -10 4 0 6 5 11 10 11 6 0 10 -2 10
-4z m-1270 -26 c6 -11 8 -20 6 -20 -3 0 -10 9 -16 20 -6 11 -8 20 -6 20 3 0
10 -9 16 -20z m691 3 c13 -17 13 -17 -6 -3 -11 8 -22 16 -24 17 -2 2 0 3 6 3
6 0 17 -8 24 -17z m329 -3 c0 -5 -5 -10 -11 -10 -5 0 -7 5 -4 10 3 6 8 10 11
10 2 0 4 -4 4 -10z m-3224 -38 c-10 -2 -12 -12 -6 -40 9 -38 13 -114 10 -167
l-2 -30 -9 30 c-5 17 -16 62 -24 100 -8 39 -18 81 -21 95 -6 23 -5 24 8 7 13
-18 15 -17 27 9 10 22 14 25 21 13 7 -9 5 -15 -4 -17z m3747 -2 c-7 -26 -15
-31 -33 -19 -13 7 -12 9 1 9 9 0 19 7 23 15 8 22 15 18 9 -5z m-1457 -105 c18
-27 67 -85 109 -127 72 -74 91 -108 60 -108 -35 0 -208 209 -197 239 2 8 0 11
-6 7 -10 -6 -47 42 -39 51 3 3 13 -8 22 -24 15 -26 15 -26 9 -3 -4 14 -13 34
-20 45 -8 11 -14 24 -14 30 0 5 10 -6 22 -25 11 -19 36 -57 54 -85z m1324 108
c-1 -10 -50 -90 -50 -81 0 4 4 17 9 30 5 13 12 31 15 41 5 16 26 25 26 10z
m-1420 -53 c6 -11 8 -20 6 -20 -3 0 -10 9 -16 20 -6 11 -8 20 -6 20 3 0 10 -9
16 -20z m1356 -77 c-8 -15 -15 -25 -16 -21 0 12 23 58 27 54 3 -2 -2 -17 -11
-33z m114 29 c0 -5 -7 -17 -16 -28 -8 -10 -14 -14 -11 -9 2 6 7 18 10 28 7 17
17 23 17 9z m-65 -100 c-14 -28 -36 -64 -49 -79 -27 -33 -110 -178 -120 -210
-4 -12 -20 -33 -36 -47 -16 -13 -32 -37 -36 -52 -8 -30 -28 -58 -129 -178 -62
-72 -125 -158 -136 -186 -6 -13 -8 -13 -14 2 -7 16 13 52 57 103 57 66 132
164 145 190 8 17 28 42 44 57 32 29 42 61 12 37 -20 -16 -22 -22 52 106 32 55
71 116 85 135 15 19 42 64 61 100 35 66 48 82 60 74 4 -2 11 6 15 18 8 22 8
22 12 2 1 -11 -9 -44 -23 -72z m-636 42 c3 -16 1 -17 -13 -5 -19 16 -21 34 -3
29 6 -3 14 -13 16 -24z m-474 -92 c-5 -5 -64 61 -65 72 0 5 15 -8 34 -30 19
-21 33 -41 31 -42z m1026 51 c-12 -20 -14 -14 -5 12 4 9 9 14 11 11 3 -2 0
-13 -6 -23z m-2587 0 c17 -59 15 -102 -14 -271 -17 -100 -35 -192 -40 -205
-15 -38 -11 191 5 299 9 54 18 120 22 147 6 48 18 61 27 30z m-395 -103 c104
-53 176 -133 167 -186 -2 -16 -5 -37 -5 -48 -1 -15 -4 -16 -16 -6 -12 10 -13
7 -4 -22 5 -18 11 -54 14 -80 2 -26 12 -59 21 -75 l18 -28 -28 25 c-89 78
-283 371 -288 433 -1 15 -6 27 -10 27 -4 0 -8 4 -8 9 0 10 80 -18 139 -49z
m1807 33 c7 -10 14 -25 14 -34 0 -9 7 -22 15 -29 9 -7 13 -21 10 -31 -4 -11 1
-21 11 -27 11 -6 17 -21 16 -41 0 -24 4 -31 18 -31 25 0 47 -43 101 -196 23
-65 48 -135 55 -154 18 -48 18 -81 0 -74 -9 3 -16 -2 -18 -13 -2 -10 -14 23
-27 72 -13 50 -35 118 -47 153 -13 34 -24 69 -24 77 0 19 -41 128 -46 122 -2
-2 3 -25 12 -51 9 -26 14 -50 11 -53 -10 -9 -67 116 -67 147 0 17 -5 40 -10
51 -6 11 -7 19 -1 19 5 0 -4 25 -19 55 -28 54 -30 71 -4 38z m-2307 -43 c0 -9
-4 -8 -9 5 -5 11 -9 27 -9 35 0 9 4 8 9 -5 5 -11 9 -27 9 -35z m58 -22 c-3 -8
-6 -5 -6 6 -1 11 2 17 5 13 3 -3 4 -12 1 -19z m2473 -3 c13 -14 21 -25 18 -25
-2 0 -15 11 -28 25 -13 14 -21 25 -18 25 2 0 15 -11 28 -25z m185 -44 c-3 -3
-18 8 -33 23 l-27 29 32 -23 c18 -13 30 -26 28 -29z m-1984 -46 c39 -24 55
-79 49 -165 -1 -22 -3 -21 -20 15 -10 22 -38 69 -63 104 -25 36 -44 68 -41 72
4 8 43 -6 75 -26z m1954 -35 c40 -32 63 -60 49 -60 -13 0 -114 108 -113 121 0
9 4 6 11 -6 5 -11 29 -36 53 -55z m80 40 c3 -5 2 -10 -4 -10 -5 0 -13 5 -16
10 -3 6 -2 10 4 10 5 0 13 -4 16 -10z m-355 -20 c0 -5 -2 -10 -4 -10 -3 0 -8
5 -11 10 -3 6 -1 10 4 10 6 0 11 -4 11 -10z m771 -23 c-10 -9 -11 -8 -5 6 3
10 9 15 12 12 3 -3 0 -11 -7 -18z m-846 -17 c3 -16 14 -39 24 -52 37 -48 72
-193 85 -356 21 -250 21 -239 -6 -275 -14 -18 -28 -41 -30 -52 -3 -11 -5 21
-6 70 0 219 -21 428 -55 563 -18 73 -30 132 -26 132 4 0 10 -13 14 -30z m3979
-105 c-4 -8 -10 -15 -15 -15 -4 0 -6 7 -3 15 4 8 10 15 15 15 4 0 6 -7 3 -15z
m-5813 -152 c53 -24 66 -38 43 -47 -13 -5 -14 -9 -4 -21 6 -7 18 -11 25 -9 9
4 21 -9 35 -35 l20 -41 -23 0 c-13 0 -28 5 -35 12 -27 27 -11 -38 27 -106 21
-39 42 -82 46 -96 4 -14 22 -37 39 -52 28 -25 24 -24 -38 10 -80 43 -235 184
-272 247 -14 24 -44 83 -68 133 l-44 89 102 -32 c55 -17 122 -41 147 -52z
m3189 -28 c0 -2 -10 -10 -22 -16 -21 -11 -22 -11 -9 4 13 16 31 23 31 12z
m-2932 -103 c34 -34 39 -47 61 -152 44 -209 39 -246 -13 -95 -33 95 -54 132
-116 205 -71 85 -100 126 -94 133 11 11 123 -52 162 -91z m2787 -32 c-3 -5
-14 -10 -23 -10 -15 0 -15 2 -2 10 20 13 33 13 25 0z m-535 -119 c0 -14 -50
-71 -62 -71 -5 0 5 18 22 40 33 41 40 47 40 31z m784 -116 c17 -123 32 -172
73 -242 l28 -48 -47 34 c-80 57 -88 70 -98 157 -5 43 -12 104 -16 135 -5 45
-3 58 11 73 10 9 21 14 26 9 4 -4 15 -58 23 -118z m-3135 -84 c167 -59 168
-59 231 -187 85 -171 100 -206 94 -216 -9 -15 -43 21 -91 97 -55 86 -109 143
-189 201 -58 41 -86 56 -189 99 l-40 16 25 14 c35 20 36 20 159 -24z m-274 -1
c11 -5 16 -9 11 -9 -5 -1 -1 -10 9 -21 17 -19 17 -19 -9 -7 -14 7 -26 15 -26
20 0 4 -17 7 -37 8 -31 0 -34 2 -18 9 11 5 27 9 35 9 8 0 24 -4 35 -9z m140
-91 c11 -17 0 -20 -21 -4 -17 13 -17 14 -2 15 9 0 20 -5 23 -11z m-117 -36
c13 3 36 -2 51 -9 15 -7 50 -13 78 -12 l52 2 106 -104 c58 -58 101 -106 96
-108 -18 -6 -121 28 -205 68 -76 36 -162 95 -246 169 l-35 30 40 -20 c22 -11
51 -18 63 -16z m1363 -431 c40 -97 66 -196 73 -281 l5 -66 -13 53 c-12 45 -45
90 -67 92 -9 0 -36 111 -45 180 -4 30 -11 66 -15 78 -11 30 -2 47 16 32 8 -6
28 -46 46 -88z m1403 53 c37 -16 126 -92 126 -108 0 -4 -6 -5 -12 -1 -10 6
-10 4 0 -7 16 -18 15 -29 -3 -29 -8 0 -14 -3 -14 -7 4 -22 -3 -24 -22 -7 -22
19 -22 19 -14 -5 l8 -25 -33 27 c-18 15 -35 25 -39 21 -3 -4 0 -9 7 -11 6 -3
12 -9 12 -15 0 -5 -15 0 -33 11 -19 11 -36 19 -38 16 -3 -2 -11 5 -18 17 -11
18 -11 20 3 15 23 -9 20 0 -5 14 -15 8 -19 8 -15 0 10 -15 -9 -14 -22 2 -14
16 -4 57 13 57 7 0 15 5 17 10 2 6 13 12 26 13 14 1 21 6 18 14 -7 16 -6 16
38 -2z m2386 -54 c-6 -12 -15 -21 -21 -21 -10 0 -5 13 14 38 15 19 20 7 7 -17z
m55 9 c3 -5 1 -10 -4 -10 -6 0 -11 5 -11 10 0 6 2 10 4 10 3 0 8 -4 11 -10z
m-3905 -35 c0 -58 49 -222 62 -209 4 3 5 -2 4 -13 -2 -10 3 -33 10 -52 27 -65
7 -41 -25 30 -18 39 -41 114 -51 166 -23 110 -24 116 -10 108 6 -3 10 -17 10
-30z m-978 5 c43 -11 81 -19 85 -18 18 6 109 -49 152 -90 25 -24 59 -55 74
-68 16 -13 23 -24 15 -24 -59 0 -210 27 -288 52 -90 28 -294 117 -287 125 5 4
66 -15 102 -33 l30 -15 -27 20 c-22 18 -24 25 -15 44 14 30 61 32 159 7z
m1960 -85 c29 -7 37 -28 123 -320 l27 -90 -92 -138 c-51 -76 -98 -141 -106
-144 -34 -13 -344 48 -344 68 0 4 21 1 47 -7 54 -16 86 -19 64 -5 -7 5 -11 13
-7 19 7 12 -25 153 -34 147 -4 -2 -5 -18 -2 -36 4 -29 3 -30 -16 -20 -12 6
-26 19 -31 29 -6 9 -11 11 -11 4 0 -6 -6 -11 -12 -10 -9 2 -12 -9 -10 -37 l2
-40 -14 30 c-14 33 -54 212 -58 261 -2 36 56 129 155 245 l65 76 113 -13 c63
-7 126 -15 141 -19z m2753 -155 c-27 -12 -43 -12 -25 0 8 5 22 9 30 9 10 0 8
-3 -5 -9z m-4199 -215 c136 -24 172 -35 170 -53 -2 -14 -23 -15 -163 -13 -88
1 -198 9 -244 16 l-84 14 85 -5 c60 -3 81 -2 70 5 -8 6 -31 11 -49 11 -72 0
18 38 94 39 22 0 77 -6 121 -14z m4114 -67 c41 -5 104 -14 140 -19 36 -5 93
-12 127 -15 67 -7 77 -24 15 -24 -20 0 -76 -7 -123 -16 -117 -23 -216 -13
-229 22 -5 13 -15 24 -22 25 -7 1 -2 5 12 9 21 7 18 8 -20 9 -25 1 -56 8 -70
16 -23 14 -21 14 35 9 33 -3 94 -10 135 -16z m-3630 -108 c13 -8 13 -10 -2
-10 -9 0 -20 5 -23 10 -8 13 5 13 25 0z m2814 -155 c14 -14 22 -25 17 -25 -8
0 -51 38 -51 45 0 10 10 4 34 -20z m-2854 -44 c-9 -19 -8 -21 15 -21 16 0 25
-6 25 -15 0 -25 16 -17 54 25 20 22 36 36 36 30 0 -5 -18 -26 -40 -46 -22 -21
-40 -40 -40 -43 1 -8 67 -41 83 -41 7 0 25 -11 41 -23 24 -20 26 -25 13 -30
-9 -3 -16 -3 -16 1 3 20 -4 21 -33 6 -29 -15 -31 -18 -13 -24 17 -6 17 -7 -6
-13 -13 -4 -45 -7 -71 -7 -42 0 -48 3 -67 36 -12 19 -21 42 -21 51 0 12 -7 14
-37 10 -49 -8 -61 -22 -45 -48 8 -12 12 -22 10 -24 -17 -14 -107 -45 -132 -45
-28 1 -29 2 -13 14 9 7 17 16 17 18 0 5 -74 21 -103 23 -4 0 -13 -11 -20 -25
-8 -16 -23 -26 -40 -28 -23 -3 -27 0 -27 23 0 16 10 35 23 46 l22 19 -30 -3
c-16 -2 -39 -8 -49 -14 -17 -9 -22 -6 -37 21 -16 29 -15 32 2 44 16 11 23 10
48 -7 37 -27 73 -27 97 0 13 15 26 19 45 15 18 -3 29 0 33 9 6 16 46 44 72 50
11 2 30 7 43 11 22 7 23 5 19 -30 -3 -25 0 -36 9 -36 7 0 13 5 13 11 0 8 4 8
13 1 8 -7 18 -7 27 -2 8 5 23 7 32 4 23 -7 45 5 28 16 -8 5 -6 16 7 42 10 20
19 32 21 28 2 -5 -2 -18 -8 -29z m-529 -85 c-23 -41 -91 -62 -91 -27 0 17 33
47 70 62 24 11 35 -8 21 -35z m4132 7 c-7 -2 -19 -2 -25 0 -7 3 -2 5 12 5 14
0 19 -2 13 -5z m-4684 -89 c14 -12 -19 -1 -35 12 -18 14 -18 14 6 3 14 -6 27
-13 29 -15z m72 -41 c13 -17 13 -17 -6 -3 -11 8 -22 16 -24 17 -2 2 0 3 6 3 6
0 17 -8 24 -17z m4749 -92 c136 -21 364 -71 356 -78 -2 -2 -109 6 -237 18
-739 68 -1162 -59 -1844 -552 -99 -72 -115 -82 -115 -76 0 3 34 30 76 62 42
31 73 59 70 62 -2 3 -22 -8 -43 -23 -21 -16 -35 -24 -31 -20 11 13 -12 48 -28
42 -32 -12 -8 7 109 84 67 45 130 91 139 101 18 21 96 77 163 117 49 29 46 28
-135 -42 -192 -75 -251 -101 -335 -147 -160 -87 -556 -253 -698 -293 -54 -16
-100 -26 -102 -24 -2 2 50 21 117 41 66 21 119 40 117 41 -2 2 -31 -2 -64 -9
-64 -13 -88 -10 -79 9 3 6 0 4 -8 -5 -11 -13 -20 -13 -58 -4 l-45 12 60 18
c143 43 306 110 603 249 490 230 950 371 1367 421 72 8 153 17 180 19 106 8
336 -3 465 -23z m-4745 -26 l20 -16 -20 10 c-11 5 -29 17 -40 26 l-20 16 20
-10 c11 -5 29 -17 40 -26z m2782 -9 c-13 -10 -15 -15 -5 -19 9 -3 4 -13 -15
-31 -26 -24 -30 -25 -50 -11 -30 21 -44 19 -73 -10 -20 -20 -23 -28 -14 -45 8
-15 21 -20 55 -20 37 0 47 5 61 25 16 24 18 25 35 9 17 -15 17 -18 1 -40 -9
-13 -22 -24 -27 -24 -6 0 -19 -9 -28 -21 -13 -15 -25 -19 -43 -15 -16 4 -24 2
-25 -6 -1 -7 -4 -2 -8 10 -14 53 -140 61 -156 11 -4 -12 -27 -29 -53 -40 -26
-10 -60 -26 -77 -35 -21 -11 -25 -11 -13 -1 16 13 14 16 -23 36 -22 13 -54 22
-72 21 -49 -3 -50 -2 -29 33 11 17 18 37 16 43 -7 17 28 40 81 53 27 7 52 16
55 20 7 11 110 20 110 10 0 -5 -9 -9 -19 -9 -27 0 -75 -19 -68 -27 6 -5 90 13
110 24 4 3 3 11 -3 18 -6 7 -7 15 -3 18 9 5 165 26 233 30 25 2 50 4 55 5 6 1
2 -5 -8 -12z m-77 -96 c0 -5 -5 -10 -11 -10 -5 0 -7 5 -4 10 3 6 8 10 11 10 2
0 4 -4 4 -10z m-150 -90 c0 -5 -2 -10 -4 -10 -3 0 -8 5 -11 10 -3 6 -1 10 4
10 6 0 11 -4 11 -10z m-14 -25 c16 -12 16 -14 3 -15 -9 0 -22 7 -29 15 -16 19
0 19 26 0z m-286 -67 c8 -13 13 -29 12 -35 -2 -8 8 -13 26 -13 27 0 142 -44
142 -54 0 -3 -13 -4 -30 -4 -16 1 -30 5 -30 10 0 5 -5 6 -11 2 -7 -4 -30 -9
-53 -11 -73 -7 -106 -14 -106 -23 0 -5 -10 -7 -22 -4 -13 2 -37 7 -54 10 -18
3 -35 1 -38 -5 -4 -6 -14 -3 -27 10 -12 12 -29 19 -40 16 -15 -4 -19 0 -19 18
0 24 42 65 66 65 8 0 14 5 14 10 0 18 39 10 50 -10 13 -25 48 -26 57 -2 17 46
41 54 63 20z m150 -122 c0 -2 -7 -7 -16 -10 -8 -3 -12 -2 -9 4 6 10 25 14 25
6z m-40 -20 c0 -2 -7 -7 -16 -10 -8 -3 -12 -2 -9 4 6 10 25 14 25 6z m-55 -26
c-11 -5 -27 -9 -35 -9 -9 0 -8 4 5 9 11 5 27 9 35 9 9 0 8 -4 -5 -9z m-420
-80 c3 -5 2 -10 -4 -10 -5 0 -13 5 -16 10 -3 6 -2 10 4 10 5 0 13 -4 16 -10z
m172 -136 c-3 -3 -12 -4 -19 -1 -8 3 -5 6 6 6 11 1 17 -2 13 -5z"/>
<path d="M4680 7352 c1 -15 107 -125 117 -121 6 2 -18 32 -53 66 -35 34 -64
59 -64 55z"/>
<path d="M4701 7253 c26 -47 40 -65 47 -59 5 6 -50 95 -60 96 -4 0 2 -17 13
-37z"/>
<path d="M4730 7172 c0 -12 19 -26 26 -19 2 2 -2 10 -11 17 -9 8 -15 8 -15 2z"/>
<path d="M3225 7400 c-3 -5 -1 -10 4 -10 6 0 11 5 11 10 0 6 -2 10 -4 10 -3 0
-8 -4 -11 -10z"/>
<path d="M3103 7268 c-18 -11 -33 -25 -33 -31 0 -8 4 -7 9 2 5 7 14 10 20 7 6
-4 11 -2 11 3 0 6 3 10 8 10 20 -3 32 2 32 16 0 19 -7 18 -47 -7z"/>
<path d="M6552 6625 c-7 -14 -12 -31 -12 -38 1 -7 7 3 16 22 17 39 13 54 -4
16z"/>
<path d="M6500 6506 c-15 -39 -12 -46 6 -13 9 16 13 31 10 34 -3 3 -10 -6 -16
-21z"/>
<path d="M3915 6041 c4 -8 2 -17 -6 -22 -9 -6 -10 -9 -2 -9 19 0 27 21 13 33
-10 9 -11 9 -5 -2z"/>
<path d="M4250 5640 c6 -11 13 -20 16 -20 2 0 0 9 -6 20 -6 11 -13 20 -16 20
-2 0 0 -9 6 -20z"/>
<path d="M4270 5596 c0 -2 8 -10 18 -17 15 -13 16 -12 3 4 -13 16 -21 21 -21
13z"/>
<path d="M4160 5515 c0 -5 12 -23 26 -40 14 -16 21 -21 15 -10 -14 30 -40 61
-41 50z"/>
<path d="M4850 5875 c13 -14 26 -25 28 -25 3 0 -5 11 -18 25 -13 14 -26 25
-28 25 -3 0 5 -11 18 -25z"/>
<path d="M4539 5622 c11 -16 28 -35 38 -43 10 -8 3 5 -16 29 -37 47 -53 58
-22 14z"/>
<path d="M4650 5546 c0 -2 8 -10 18 -17 15 -13 16 -12 3 4 -13 16 -21 21 -21
13z"/>
<path d="M5377 4542 c-15 -15 -27 -31 -27 -35 0 -4 14 6 30 23 27 28 35 40 27
40 -2 0 -15 -13 -30 -28z"/>
<path d="M4561 4204 c0 -11 3 -14 6 -6 3 7 2 16 -1 19 -3 4 -6 -2 -5 -13z"/>
<path d="M3835 2291 c-3 -5 0 -13 6 -17 7 -4 9 -3 5 4 -3 5 0 13 6 15 9 4 10
6 1 6 -6 1 -14 -3 -18 -8z"/>
<path d="M3300 2229 c0 -5 5 -7 10 -4 6 3 10 8 10 11 0 2 -4 4 -10 4 -5 0 -10
-5 -10 -11z"/>
<path d="M5148 9213 c7 -3 16 -2 19 1 4 3 -2 6 -13 5 -11 0 -14 -3 -6 -6z"/>
<path d="M5017 9203 c18 -2 50 -2 70 0 21 2 7 4 -32 4 -38 0 -55 -2 -38 -4z"/>
<path d="M6236 8814 c34 -38 64 -76 67 -84 4 -12 6 -11 6 3 1 16 -101 137
-124 146 -5 2 17 -27 51 -65z"/>
<path d="M6126 8853 c-9 -9 -7 -41 3 -47 5 -3 11 6 14 19 4 25 -4 40 -17 28z"/>
<path d="M5464 8823 c3 -4 -1 -15 -11 -25 -13 -14 -13 -18 -2 -17 42 2 62 33
28 42 -12 3 -18 3 -15 0z"/>
<path d="M6095 8750 c11 -13 28 -33 38 -44 9 -11 17 -26 17 -33 0 -7 9 -21 20
-30 11 -10 25 -32 31 -50 6 -18 15 -33 20 -33 5 0 9 -16 9 -35 0 -19 -4 -35
-10 -35 -5 0 -10 7 -10 16 0 13 -3 14 -13 5 -8 -6 -16 -8 -19 -5 -6 5 -23 -84
-19 -99 1 -5 -2 -6 -7 -3 -4 2 -25 -22 -47 -55 -23 -36 -41 -55 -46 -48 -4 8
-11 3 -19 -12 -7 -13 -19 -28 -26 -32 -8 -4 -14 -13 -14 -19 0 -6 -13 -26 -30
-45 -16 -18 -30 -29 -30 -23 0 7 -10 6 -27 -4 -31 -16 -67 -29 -69 -24 0 2 -8
-3 -16 -10 -19 -16 -109 -43 -120 -36 -16 10 -8 -9 10 -22 14 -12 15 -13 1 -8
-10 3 -25 -3 -35 -14 -14 -14 -27 -19 -46 -15 -28 5 -37 26 -18 38 6 3 10 -1
10 -9 0 -18 17 -21 39 -7 7 5 10 14 6 21 -6 9 -9 9 -16 -1 -6 -10 -11 -11 -19
-3 -9 9 -9 14 -1 18 6 4 11 12 11 18 0 6 -10 2 -22 -9 -13 -11 -40 -23 -60
-26 -33 -5 -38 -3 -38 14 0 11 5 30 11 41 7 13 7 18 1 14 -6 -3 -13 -2 -17 4
-8 13 -25 13 -25 0 0 -5 6 -10 14 -10 9 0 12 -7 9 -20 -3 -11 -7 -20 -9 -20
-2 0 -26 5 -54 11 -34 7 -49 14 -42 21 6 6 17 6 32 -2 14 -8 26 -8 32 -2 13
13 -42 31 -67 21 -72 -28 -140 19 -89 62 13 11 23 10 60 -4 51 -19 58 -15 12
7 -43 22 -74 20 -94 -6 -14 -20 -16 -20 -9 -3 11 33 11 37 -2 42 -8 3 -13 -4
-13 -18 0 -24 -10 -21 -14 4 -2 17 -31 47 -45 47 -18 0 -131 75 -131 87 0 7
-3 12 -7 12 -5 -1 -19 -1 -32 0 -18 1 -22 5 -18 20 3 13 -1 21 -12 24 -10 2
-34 39 -55 81 -39 78 -61 100 -76 76 -5 -8 -23 -13 -42 -12 -118 6 -148 4
-192 -18 -164 -79 -201 -350 -49 -350 31 0 60 17 113 67 49 46 79 43 99 -10
16 -41 13 -69 -9 -97 -36 -46 -22 -69 38 -61 23 3 103 -31 111 -48 5 -9 9 -49
10 -90 1 -103 13 -115 107 -108 73 5 120 27 182 84 13 12 46 26 73 32 58 13
93 -3 103 -45 7 -25 8 -25 71 -19 58 7 70 4 135 -26 l71 -32 15 21 c15 22 44
30 44 12 0 -5 -10 -10 -22 -10 -22 -1 -23 -1 -4 -15 16 -12 17 -18 8 -27 -7
-7 -12 -26 -12 -44 0 -17 -7 -37 -15 -44 -8 -7 -15 -18 -15 -26 0 -7 -10 -20
-22 -28 -22 -16 -22 -16 -1 -16 11 0 46 11 77 25 33 15 75 25 101 25 40 0 47
-4 65 -32 11 -18 18 -43 15 -55 -5 -28 -65 -136 -72 -129 -2 2 0 13 6 24 16
30 14 34 -10 20 -17 -11 -22 -10 -30 5 -7 11 -22 17 -44 17 -24 0 -35 5 -35
15 0 11 -13 15 -52 16 -29 1 -62 3 -73 4 -11 1 -28 3 -37 3 -9 1 -23 8 -30 15
-7 7 -26 18 -43 24 -16 6 -38 14 -48 18 -13 6 -16 3 -11 -9 8 -20 -4 -21 -25
-1 -9 8 -35 17 -58 21 l-42 6 19 -53 c22 -59 24 -73 12 -65 -5 3 -25 -15 -46
-39 -31 -38 -38 -54 -42 -107 -6 -63 0 -86 41 -158 8 -14 15 -35 15 -48 0 -21
40 -106 76 -162 9 -14 2 -9 -15 10 -17 19 -31 41 -31 48 0 6 -4 12 -10 12 -11
0 -11 -14 0 -50 4 -14 8 -19 9 -12 2 29 20 -2 27 -46 11 -81 54 -282 64 -300
5 -9 23 -70 39 -135 40 -154 68 -220 86 -204 7 7 10 16 7 22 -4 5 11 -5 33
-23 45 -37 59 -40 52 -13 -9 37 36 7 84 -55 50 -65 100 -104 133 -104 12 0 39
17 59 38 37 38 48 75 70 235 6 41 0 43 -68 28 -45 -11 -79 5 -106 48 -15 25
-26 34 -29 25 -3 -8 -13 1 -28 26 -18 33 -20 40 -7 40 8 0 15 -7 15 -15 0 -28
17 -15 24 17 4 21 2 34 -6 40 -9 5 -3 8 14 8 20 0 26 4 22 14 -5 13 -11 13
-45 1 -31 -11 -45 -12 -65 -3 -23 11 -25 17 -22 55 2 24 0 43 -4 43 -5 0 -8
13 -8 30 0 57 123 114 215 100 44 -7 56 -14 98 -61 54 -60 97 -143 97 -186 0
-16 -13 -67 -30 -113 -26 -75 -30 -98 -29 -190 1 -161 17 -184 58 -87 11 26
27 50 35 53 9 3 18 14 21 25 3 10 18 24 32 31 46 23 50 41 25 112 -12 36 -22
76 -22 90 0 14 -5 26 -11 26 -6 0 -9 -7 -5 -15 3 -8 1 -15 -4 -15 -22 0 -25
105 -3 128 9 10 15 8 28 -10 15 -21 16 -21 13 -3 -2 14 2 19 13 17 24 -4 31
24 14 61 -8 18 -12 22 -9 10 5 -23 -9 -32 -21 -13 -3 6 -14 10 -24 10 -10 0
-30 14 -45 30 l-27 31 116 116 c78 79 133 145 169 203 93 150 114 200 177 415
17 61 36 115 43 120 6 6 21 30 33 55 19 39 20 46 8 61 -8 8 -15 32 -15 53 0
26 -6 43 -21 55 -17 13 -23 34 -30 96 -15 138 -44 267 -74 325 -8 16 -15 36
-15 45 0 8 -9 24 -20 35 -11 11 -21 25 -22 32 -2 7 -11 21 -21 32 -10 11 -31
49 -48 84 -16 34 -36 65 -44 68 -7 3 -11 12 -9 19 3 7 1 16 -5 20 -7 4 -9 -1
-5 -12 5 -17 5 -17 -9 0 -8 9 -18 17 -22 17 -10 0 25 -53 42 -63 7 -4 13 -12
13 -17 0 -5 17 -38 38 -72 117 -194 190 -481 179 -706 -6 -130 -27 -214 -86
-353 -36 -83 -120 -221 -144 -236 -7 -4 5 16 25 44 20 28 48 82 62 120 13 37
36 99 50 136 14 37 28 93 31 125 6 55 5 56 -9 27 -19 -39 -19 -17 -1 78 8 43
15 102 15 130 l0 52 -54 18 c-52 17 -53 17 -95 -5 -34 -19 -41 -27 -36 -45 3
-13 1 -23 -4 -23 -5 0 -15 25 -21 56 -11 50 -14 55 -33 50 -12 -3 -26 -6 -32
-6 -5 0 -4 -4 4 -9 11 -7 11 -14 -3 -41 -20 -40 -20 -40 -1 -40 8 0 15 -6 15
-14 0 -17 -33 -31 -38 -17 -2 6 -14 11 -27 11 -30 0 -45 26 -45 77 0 31 8 46
43 82 41 43 42 45 42 115 1 39 -3 76 -8 83 -6 8 0 21 18 39 25 25 27 32 27
121 0 73 3 96 14 100 13 5 114 -54 114 -67 0 -3 11 -18 25 -35 18 -21 23 -24
18 -10 -3 11 -14 30 -22 41 -9 12 -23 32 -31 44 -40 61 -57 74 -94 73 -33 -1
-41 5 -100 75 -60 72 -159 172 -111 112z m-1133 -304 c29 -30 35 -46 17 -46
-6 0 -18 -7 -26 -16 -17 -17 -56 -12 -77 9 -15 15 -30 80 -17 72 5 -3 13 -1
16 5 12 19 58 6 87 -24z m146 -118 c119 -64 142 -80 142 -99 0 -14 -7 -19 -25
-19 -14 0 -25 -6 -25 -12 0 -7 -12 0 -25 15 -14 16 -23 32 -20 37 8 13 -57 28
-147 35 -46 4 -81 12 -88 20 -15 18 -4 52 18 59 36 10 115 -6 170 -36z m1128
-9 c-3 -18 -23 -50 -44 -73 -20 -23 -53 -66 -72 -96 -31 -48 -35 -52 -38 -31
-2 14 8 55 23 92 20 53 36 75 72 103 57 44 67 45 59 5z m-1115 -122 c12 -16
-3 -58 -18 -53 -8 3 -19 6 -24 6 -6 0 -7 5 -4 10 3 6 0 12 -7 15 -7 3 -14 16
-14 29 -2 22 0 23 30 12 17 -6 34 -15 37 -19z m474 -147 c-3 -5 -10 -10 -16
-10 -5 0 -9 5 -9 10 0 6 7 10 16 10 8 0 12 -4 9 -10z m475 -6 c0 -9 -7 -14
-17 -12 -25 5 -28 28 -4 28 12 0 21 -6 21 -16z m-613 0 c-3 -3 -12 -4 -19 -1
-8 3 -5 6 6 6 11 1 17 -2 13 -5z m683 -94 c0 -5 -4 -10 -10 -10 -5 0 -10 5
-10 10 0 6 5 10 10 10 6 0 10 -4 10 -10z m-679 -22 c11 -21 11 -22 -4 -9 -10
7 -17 17 -17 22 0 15 9 10 21 -13z m933 -33 c-9 -14 -21 -25 -27 -25 -6 0 0
11 13 25 13 14 25 25 27 25 2 0 -4 -11 -13 -25z m-504 0 c7 -8 11 -15 9 -16
-2 0 -28 -2 -56 -4 -40 -3 -53 0 -53 10 0 24 82 32 100 10z m600 -292 c-10
-16 -11 -15 -6 7 3 14 6 34 7 45 1 13 3 11 6 -7 2 -15 -1 -35 -7 -45z m-901
-38 c10 -10 -6 -6 -44 11 -79 35 -95 51 -26 25 30 -11 62 -28 70 -36z m-42 49
c-3 -3 -12 -4 -19 -1 -8 3 -5 6 6 6 11 1 17 -2 13 -5z m50 -20 c-3 -3 -12 -4
-19 -1 -8 3 -5 6 6 6 11 1 17 -2 13 -5z m564 -64 c25 -14 49 -62 49 -99 0 -17
-9 -54 -21 -83 -24 -62 -43 -88 -25 -34 19 55 2 126 -30 126 -24 0 -43 38 -29
59 3 6 4 11 1 11 -2 0 -12 3 -22 7 -11 4 -15 3 -11 -4 4 -6 1 -10 -6 -9 -6 0
-12 -3 -12 -9 0 -5 3 -9 8 -7 4 1 7 -3 7 -9 0 -6 -9 -9 -20 -6 -11 3 -20 1
-20 -4 0 -5 -14 -9 -30 -9 -17 0 -43 -8 -58 -17 -22 -15 -19 -8 17 34 24 29
53 54 65 56 43 9 118 7 137 -3z m289 -18 c0 -5 -7 -17 -15 -28 -14 -18 -14
-17 -4 9 12 27 19 34 19 19z m-930 -92 c6 -11 8 -20 6 -20 -3 0 -10 9 -16 20
-6 11 -8 20 -6 20 3 0 10 -9 16 -20z m874 -2 c-18 -30 -85 -118 -90 -118 -5 0
19 37 64 98 24 31 40 44 26 20z m-114 -162 c0 -2 -8 -10 -17 -17 -16 -13 -17
-12 -4 4 13 16 21 21 21 13z m-150 -39 c0 -7 -7 -22 -15 -33 -13 -17 -13 -16
-3 14 13 34 18 40 18 19z m-380 -141 c0 -2 -8 -10 -17 -17 -16 -13 -17 -12 -4
4 13 16 21 21 21 13z m145 -26 c3 -5 -1 -10 -10 -10 -9 0 -13 5 -10 10 3 6 8
10 10 10 2 0 7 -4 10 -10z m110 -20 c4 -6 -12 -10 -42 -9 -36 0 -43 3 -28 9
28 12 63 12 70 0z m-418 -165 c38 -29 52 -47 52 -65 1 -20 -1 -22 -9 -10 -7
12 -10 8 -11 -15 -1 -53 -10 -63 -46 -53 -29 8 -33 13 -33 43 0 18 -4 37 -10
40 -5 3 -10 23 -10 44 0 28 -9 49 -31 77 -53 67 -54 81 -3 29 27 -27 73 -68
101 -90z m-103 -135 c-7 -6 -24 22 -23 40 0 9 6 5 14 -10 7 -14 11 -27 9 -30z
m196 -25 c0 -5 -5 -3 -10 5 -5 8 -10 20 -10 25 0 6 5 3 10 -5 5 -8 10 -19 10
-25z m-46 -45 c-6 -5 -24 21 -24 34 0 6 6 1 14 -10 8 -10 12 -21 10 -24z m36
-69 c0 -9 5 -22 12 -29 6 -6 9 -15 5 -18 -4 -4 -14 9 -22 29 -18 43 -19 50 -5
42 6 -3 10 -14 10 -24z m69 -38 c11 -27 76 -73 104 -73 7 0 34 -14 60 -31 50
-33 54 -59 9 -59 -33 0 -109 45 -117 69 -3 10 -22 32 -43 48 -24 20 -38 40
-40 57 -2 33 11 27 27 -11z m-199 -26 c0 -5 -4 -5 -10 -2 -5 3 -10 14 -10 23
0 15 2 15 10 2 5 -8 10 -19 10 -23z m254 7 c5 -14 4 -15 -9 -4 -17 14 -19 20
-6 20 5 0 12 -7 15 -16z"/>
<path d="M5140 8687 c0 -13 -36 -86 -51 -101 -5 -6 -20 1 -39 19 -16 16 -32
26 -36 23 -3 -4 6 -41 21 -83 17 -46 26 -89 23 -110 -3 -27 -1 -32 9 -23 7 6
13 21 13 35 0 13 6 31 14 39 12 12 16 10 24 -14 9 -23 11 -24 11 -6 1 12 -9
34 -21 49 -21 27 -21 28 -2 42 10 7 19 19 20 26 2 32 18 78 30 88 8 6 11 15 8
20 -8 13 -24 11 -24 -4z"/>
<path d="M5131 8424 c0 -11 3 -14 6 -6 3 7 2 16 -1 19 -3 4 -6 -2 -5 -13z"/>
<path d="M4339 8372 c-3 -20 -2 -29 4 -23 5 5 7 19 5 32 -3 20 -5 19 -9 -9z"/>
<path d="M4310 8287 c0 -24 39 -83 40 -60 0 6 -4 15 -10 18 -5 3 -10 17 -10
30 0 13 -4 27 -10 30 -6 3 -10 -5 -10 -18z"/>
<path d="M3622 8240 c0 -14 2 -19 5 -12 2 6 2 18 0 25 -3 6 -5 1 -5 -13z"/>
<path d="M5570 8130 c0 -5 12 -10 28 -9 24 0 25 1 7 9 -27 12 -35 12 -35 0z"/>
<path d="M6651 8092 c-1 -23 -8 -54 -17 -67 -10 -15 -12 -25 -5 -25 22 0 41
57 32 97 l-9 38 -1 -43z"/>
<path d="M6821 7914 c0 -11 3 -14 6 -6 3 7 2 16 -1 19 -3 4 -6 -2 -5 -13z"/>
<path d="M6676 7884 c-9 -23 -7 -44 3 -44 5 0 11 14 13 30 5 32 -6 41 -16 14z"/>
<path d="M3617 7864 c-4 -4 -7 -14 -7 -23 0 -11 3 -12 11 -4 6 6 10 16 7 23
-2 6 -7 8 -11 4z"/>
<path d="M5005 7801 c-38 -6 -39 -7 -17 -19 26 -15 85 -7 103 14 9 11 6 14
-17 13 -16 -1 -47 -5 -69 -8z"/>
<path d="M5112 7772 c-35 -35 -69 -87 -76 -115 -8 -34 16 -77 69 -125 41 -36
69 -46 111 -39 25 3 23 4 -9 6 -39 1 -87 25 -87 44 0 6 -7 18 -15 27 -20 23
-21 58 -1 103 33 76 144 96 211 39 l30 -27 -32 34 c-24 26 -43 36 -80 41 -26
4 -53 4 -59 -1 -5 -4 -20 -6 -32 -2 -18 4 -20 8 -11 19 17 20 2 17 -19 -4z
m-8 -67 c-9 -14 -18 -25 -21 -25 -5 0 5 18 20 38 17 22 18 13 1 -13z"/>
<path d="M5746 7663 c-28 -15 -83 -14 -156 2 -22 5 -22 4 -5 -4 11 -5 16 -10
10 -10 -5 -1 -3 -6 5 -11 24 -15 101 -9 147 11 24 10 43 21 43 24 0 8 -13 5
-44 -12z"/>
<path d="M5175 7530 c-18 -8 -17 -9 8 -9 16 -1 26 3 22 9 -3 6 -7 10 -8 9 -1
0 -11 -4 -22 -9z"/>
<path d="M3680 7498 c0 -22 61 -149 89 -185 14 -18 11 -6 -10 32 -18 33 -43
84 -56 115 -12 30 -23 47 -23 38z"/>
<path d="M3600 7261 c0 -6 4 -13 10 -16 6 -3 7 1 4 9 -7 18 -14 21 -14 7z"/>
<path d="M4051 7222 c-1 -8 -6 -10 -13 -6 -7 4 -2 -5 11 -19 25 -27 42 -38 23
-14 -5 6 -12 21 -15 32 -2 11 -5 14 -6 7z"/>
<path d="M6495 7142 c-3 -11 -17 -36 -30 -56 -13 -19 -23 -48 -23 -64 1 -16
-4 -37 -11 -48 -11 -17 -12 -16 -8 11 5 27 4 28 -9 10 -8 -10 -14 -24 -14 -31
0 -7 -4 -14 -9 -16 -5 -1 -3 -9 4 -15 19 -18 41 6 56 60 6 23 17 53 24 67 17
32 36 92 31 97 -2 3 -7 -4 -11 -15z"/>
<path d="M5228 7095 c2 -14 6 -25 8 -25 2 0 4 11 4 25 0 14 -4 25 -9 25 -4 0
-6 -11 -3 -25z"/>
<path d="M4100 7032 c0 -14 43 -49 70 -57 28 -8 23 -2 -32 39 -21 15 -38 23
-38 18z"/>
<path d="M6298 6910 c4 -29 32 -65 32 -41 0 6 -4 11 -10 11 -5 0 -10 14 -10
30 0 17 -4 30 -8 30 -5 0 -7 -13 -4 -30z"/>
<path d="M6386 6893 c-6 -14 -5 -15 5 -6 7 7 10 15 7 18 -3 3 -9 -2 -12 -12z"/>
<path d="M5181 6864 c0 -11 3 -14 6 -6 3 7 2 16 -1 19 -3 4 -6 -2 -5 -13z"/>
<path d="M6270 6857 c0 -15 4 -27 10 -27 5 0 9 9 7 20 -5 31 -17 36 -17 7z"/>
<path d="M6386 6853 c-6 -14 -5 -15 5 -6 7 7 10 15 7 18 -3 3 -9 -2 -12 -12z"/>
<path d="M6281 6798 c0 -13 4 -32 9 -43 7 -15 8 -10 8 23 -1 23 -5 42 -10 42
-4 0 -8 -10 -7 -22z"/>
<path d="M5000 6650 c0 -5 5 -10 11 -10 5 0 7 5 4 10 -3 6 -8 10 -11 10 -2 0
-4 -4 -4 -10z"/>
<path d="M5215 6605 c8 -47 25 -72 25 -34 -1 13 -8 35 -16 49 -15 24 -15 24
-9 -15z"/>
<path d="M6226 6587 c3 -10 9 -15 12 -12 3 3 0 11 -7 18 -10 9 -11 8 -5 -6z"/>
<path d="M5271 6344 c0 -11 3 -14 6 -6 3 7 2 16 -1 19 -3 4 -6 -2 -5 -13z"/>
<path d="M5281 6304 c0 -11 3 -14 6 -6 3 7 2 16 -1 19 -3 4 -6 -2 -5 -13z"/>
<path d="M5480 6194 c0 -5 19 -27 41 -49 23 -22 37 -31 31 -20 -13 25 -72 82
-72 69z"/>
<path d="M5682 5915 c24 -65 51 -97 73 -89 10 4 21 1 26 -7 8 -12 11 -12 19 1
8 13 10 12 10 -3 0 -18 54 -57 80 -57 8 0 0 8 -17 16 -18 9 -33 22 -33 29 0
13 -56 75 -68 75 -4 0 -13 9 -20 20 -7 11 -17 20 -24 20 -6 0 -2 -9 10 -20 12
-12 22 -25 22 -30 0 -12 -48 14 -66 36 -9 11 -14 15 -12 9z"/>
<path d="M5465 5879 c-4 -17 -4 -33 -1 -36 3 -4 6 3 6 15 0 12 4 22 9 22 13 0
24 -34 12 -38 -6 -2 -11 -10 -11 -17 0 -7 -6 -16 -12 -18 -10 -4 -10 -6 -1 -6
6 -1 15 4 18 9 3 6 11 10 16 10 6 0 8 -4 4 -9 -3 -5 0 -13 6 -17 9 -5 10 3 5
31 -16 85 -39 110 -51 54z"/>
<path d="M5600 5872 c0 -4 9 -13 20 -20 23 -14 26 -7 6 14 -16 15 -26 18 -26
6z"/>
<path d="M2348 5833 c-74 -84 -234 -310 -225 -319 3 -3 19 19 37 48 42 68 164
234 203 276 17 17 28 32 25 32 -3 0 -21 -17 -40 -37z"/>
<path d="M5670 5832 c0 -25 25 -62 42 -62 10 0 18 5 18 10 0 6 -7 10 -15 10
-8 0 -15 6 -15 14 0 7 -7 19 -15 26 -10 8 -15 9 -15 2z"/>
<path d="M5533 5788 c-15 -18 -36 -88 -29 -95 3 -3 10 7 16 23 6 16 16 39 22
51 13 26 6 40 -9 21z"/>
<path d="M5960 5770 c0 -5 5 -10 10 -10 6 0 10 5 10 10 0 6 -4 10 -10 10 -5 0
-10 -4 -10 -10z"/>
<path d="M5745 5763 c-24 -5 -59 -49 -50 -63 3 -6 21 5 38 23 19 19 39 31 50
29 9 -2 17 1 17 7 0 11 -17 12 -55 4z"/>
<path d="M5667 5749 c7 -7 15 -10 18 -7 3 3 -2 9 -12 12 -14 6 -15 5 -6 -5z"/>
<path d="M5840 5720 c0 -5 9 -14 21 -20 19 -11 20 -10 9 9 -11 22 -30 29 -30
11z"/>
<path d="M5725 5670 c-3 -5 -1 -10 4 -10 6 0 11 5 11 10 0 6 -2 10 -4 10 -3 0
-8 -4 -11 -10z"/>
<path d="M5701 5640 c14 -31 19 -36 19 -24 0 6 -7 19 -16 30 -14 18 -14 18 -3
-6z"/>
<path d="M5501 5634 c0 -11 3 -14 6 -6 3 7 2 16 -1 19 -3 4 -6 -2 -5 -13z"/>
<path d="M5650 5625 c0 -9 5 -21 10 -28 6 -7 19 -22 29 -35 12 -14 22 -19 26
-12 3 5 1 10 -4 10 -6 0 -17 15 -25 34 -16 38 -36 55 -36 31z"/>
<path d="M6175 5589 c-4 -6 -5 -12 -2 -15 2 -3 7 2 10 11 7 17 1 20 -8 4z"/>
<path d="M5740 5550 c0 -5 -10 -12 -23 -15 -18 -5 -24 -13 -24 -37 0 -31 0
-31 17 -10 10 12 21 18 25 14 5 -4 5 -2 1 5 -4 7 2 18 14 25 24 15 26 28 5 28
-8 0 -15 -4 -15 -10z"/>
<path d="M5575 5539 c-4 -6 -5 -12 -2 -15 2 -3 7 2 10 11 7 17 1 20 -8 4z"/>
<path d="M5590 5510 c0 -5 5 -10 11 -10 5 0 7 5 4 10 -3 6 -8 10 -11 10 -2 0
-4 -4 -4 -10z"/>
<path d="M6161 5474 c0 -11 3 -14 6 -6 3 7 2 16 -1 19 -3 4 -6 -2 -5 -13z"/>
<path d="M6103 5357 c-13 -33 -23 -69 -22 -80 0 -15 2 -17 6 -7 3 8 14 34 25
57 11 23 18 53 16 65 -2 17 -9 8 -25 -35z"/>
<path d="M2156 5337 c3 -10 9 -15 12 -12 3 3 0 11 -7 18 -10 9 -11 8 -5 -6z"/>
<path d="M7992 5330 c0 -14 2 -19 5 -12 2 6 2 18 0 25 -3 6 -5 1 -5 -13z"/>
<path d="M8091 5310 c1 -88 -1 -106 -10 -91 -27 42 -63 -47 -61 -150 1 -54 17
-136 19 -95 1 10 14 60 30 111 36 112 45 178 32 230 l-10 40 0 -45z m-28 -205
c-3 -9 -8 -14 -10 -11 -3 3 -2 9 2 15 9 16 15 13 8 -4z"/>
<path d="M5490 5269 c0 -5 5 -7 10 -4 6 3 10 8 10 11 0 2 -4 4 -10 4 -5 0 -10
-5 -10 -11z"/>
<path d="M8301 5144 c0 -11 3 -14 6 -6 3 7 2 16 -1 19 -3 4 -6 -2 -5 -13z"/>
<path d="M8312 5100 c0 -14 2 -19 5 -12 2 6 2 18 0 25 -3 6 -5 1 -5 -13z"/>
<path d="M7931 5056 c-1 -5 10 -41 23 -80 13 -39 27 -100 31 -136 l6 -65 -26
33 c-15 18 -30 30 -35 27 -5 -3 -23 12 -40 32 -18 21 -27 29 -22 18 6 -11 34
-44 62 -74 29 -29 57 -67 62 -83 8 -22 13 -27 19 -17 10 19 -7 167 -26 224
-20 58 -53 133 -54 121z"/>
<path d="M4121 4998 c14 -26 78 -118 93 -133 11 -11 -11 25 -62 103 -36 54
-51 69 -31 30z"/>
<path d="M5298 4928 c-22 -34 -42 -74 -31 -63 14 15 55 85 50 85 -3 0 -11 -10
-19 -22z"/>
<path d="M3260 4890 c-8 -5 -10 -10 -5 -10 6 0 17 5 25 10 8 5 11 10 5 10 -5
0 -17 -5 -25 -10z"/>
<path d="M2191 4674 c0 -11 3 -14 6 -6 3 7 2 16 -1 19 -3 4 -6 -2 -5 -13z"/>
<path d="M2143 4628 c-2 -16 1 -18 10 -9 7 7 8 14 1 21 -6 6 -10 2 -11 -12z"/>
<path d="M8473 4575 c0 -27 2 -38 4 -22 2 15 2 37 0 50 -2 12 -4 0 -4 -28z"/>
<path d="M2097 4546 c-4 -10 -1 -13 8 -9 8 3 12 9 9 14 -7 12 -11 11 -17 -5z"/>
<path d="M2139 4543 c0 -5 -2 -16 -4 -26 -2 -11 -1 -16 3 -13 8 8 14 46 7 46
-3 0 -5 -3 -6 -7z"/>
<path d="M2097 4478 c3 -24 10 -50 15 -58 6 -11 7 -9 3 8 -4 14 -2 22 6 22 9
0 8 4 -1 15 -7 8 -10 24 -7 35 3 12 0 20 -8 20 -10 0 -12 -11 -8 -42z"/>
<path d="M7800 4483 c0 -5 12 -26 26 -48 18 -28 23 -33 18 -15 -11 38 -44 86
-44 63z"/>
<path d="M7596 4047 c3 -10 9 -15 12 -12 3 3 0 11 -7 18 -10 9 -11 8 -5 -6z"/>
<path d="M7716 3977 c3 -10 9 -15 12 -12 3 3 0 11 -7 18 -10 9 -11 8 -5 -6z"/>
<path d="M4985 3864 c-11 -2 -44 -10 -74 -16 -39 -9 -64 -22 -90 -47 l-35 -36
74 -12 c107 -18 205 -50 236 -77 l27 -23 41 27 c39 27 223 90 262 90 30 1 -46
66 -93 80 -38 12 -310 23 -348 14z"/>
<path d="M7393 3790 c0 -36 2 -50 4 -32 2 17 2 47 0 65 -2 17 -4 3 -4 -33z"/>
<path d="M5834 3386 c0 -139 -10 -176 -45 -176 -11 0 -17 -5 -14 -10 4 -6 10
-8 15 -5 16 10 186 -197 223 -271 15 -29 14 -40 -8 -150 -14 -66 -29 -133 -34
-150 -5 -17 -5 -37 -1 -43 9 -15 33 71 56 206 l18 102 68 30 c93 41 98 54 69
183 -31 138 -135 338 -176 338 -7 0 -20 10 -31 21 -21 24 -52 38 -104 48 l-35
7 -1 -130z m67 -107 l-9 -34 -1 30 c0 17 2 41 6 55 7 23 8 24 11 4 2 -12 -1
-37 -7 -55z"/>
<path d="M7242 3400 c0 -14 2 -19 5 -12 2 6 2 18 0 25 -3 6 -5 1 -5 -13z"/>
<path d="M7395 3370 c-3 -5 -1 -10 4 -10 6 0 11 5 11 10 0 6 -2 10 -4 10 -3 0
-8 -4 -11 -10z"/>
<path d="M6941 3204 c0 -11 3 -14 6 -6 3 7 2 16 -1 19 -3 4 -6 -2 -5 -13z"/>
<path d="M6626 3145 c-9 -26 -7 -32 5 -12 6 10 9 21 6 23 -2 3 -7 -2 -11 -11z"/>
<path d="M7655 3120 c-13 -5 -14 -9 -5 -9 8 0 24 4 35 9 13 5 14 9 5 9 -8 0
-24 -4 -35 -9z"/>
<path d="M6731 3004 c0 -11 3 -14 6 -6 3 7 2 16 -1 19 -3 4 -6 -2 -5 -13z"/>
<path d="M7850 2970 c-10 -6 -2 -8 27 -7 23 1 45 6 49 10 11 10 -58 8 -76 -3z"/>
<path d="M4052 2870 c0 -14 2 -19 5 -12 2 6 2 18 0 25 -3 6 -5 1 -5 -13z"/>
<path d="M7728 2713 c7 -3 16 -2 19 1 4 3 -2 6 -13 5 -11 0 -14 -3 -6 -6z"/>
<path d="M3695 2669 c-16 -6 -14 -8 13 -8 33 -1 41 4 20 12 -7 2 -22 1 -33 -4z"/>
<path d="M2400 2436 c0 -2 8 -10 18 -17 15 -13 16 -12 3 4 -13 16 -21 21 -21
13z"/>
<path d="M5558 2233 c-23 -3 -38 -9 -38 -18 0 -13 10 -12 105 15 l30 8 -30 -1
c-16 0 -47 -2 -67 -4z"/>
<path d="M6178 2233 c12 -2 32 -2 45 0 12 2 2 4 -23 4 -25 0 -35 -2 -22 -4z"/>
<path d="M6075 2220 c-27 -7 -27 -8 -5 -8 14 0 39 4 55 8 27 7 27 8 5 8 -14 0
-38 -4 -55 -8z"/>
<path d="M6162 2180 c-34 -4 -66 -11 -70 -15 -4 -4 4 -5 18 -2 14 4 49 7 78 7
28 0 52 5 52 10 0 6 -3 9 -7 9 -5 -1 -36 -5 -71 -9z"/>
<path d="M6260 2170 c18 -12 47 -13 53 -2 3 4 -11 8 -31 9 -26 1 -32 -1 -22
-7z"/>
<path d="M5903 2163 c9 -2 23 -2 30 0 6 3 -1 5 -18 5 -16 0 -22 -2 -12 -5z"/>
<path d="M5788 2153 c6 -2 18 -2 25 0 6 3 1 5 -13 5 -14 0 -19 -2 -12 -5z"/>
<path d="M6058 2153 c7 -3 16 -2 19 1 4 3 -2 6 -13 5 -11 0 -14 -3 -6 -6z"/>
<path d="M4217 2039 c7 -7 15 -10 18 -7 3 3 -2 9 -12 12 -14 6 -15 5 -6 -5z"/>
<path d="M4476 2031 c-4 -5 3 -7 14 -4 23 6 26 13 6 13 -8 0 -17 -4 -20 -9z"/>
</g>
</svg>
